<svg id="2e41a6a5-1e9b-4447-bb6c-5bcc9fe91f0a" data-name="Behance alt" xmlns="http://www.w3.org/2000/svg" viewBox="0 0 578.09 512"><title>behance</title><path d="M476.52,147H360.29V118.14H476.52ZM283.1,259.11c8.71,13.06,13,28.66,13,46.95q0,22.24-8.34,38.34A74.33,74.33,0,0,1,265,370.87,98.86,98.86,0,0,1,232.42,386,143.16,143.16,0,0,1,195,391H56V98.54H191.15a172.94,172.94,0,0,1,37.4,3.71,80.34,80.34,0,0,1,29,12.06,56.29,56.29,0,0,1,18.72,22.32c4.37,9.16,6.56,20.68,6.56,34.29q0,22.08-9.83,36.85c-6.6,9.81-16.3,17.86-29.26,24.13C261.37,237.06,274.43,246.17,283.1,259.11Zm-164-42.44H183c11.19,0,20.46-2.68,27.8-8.2s10.77-14.34,10.77-26.58c0-6.82-1.16-12.44-3.52-16.8a26.47,26.47,0,0,0-9.73-10.17,39,39,0,0,0-13.9-5.13,82.9,82.9,0,0,0-16.24-1.43H119.1v68.31Zm114,85.81c0-15.07-4.16-25.76-12.44-32.26s-19.33-9.58-32.92-9.58H119.09v80.52h67.39a78.91,78.91,0,0,0,17.7-1.84,41.27,41.27,0,0,0,14.87-6.21,30.72,30.72,0,0,0,10.27-11.66C231.86,316.55,233.09,310.18,233.09,302.48Zm288.68-3.4H372c0,16.74,5.54,32.61,14.13,41.1S407,353,423,353q17.26,0,29.78-8.89c8.26-5.89,13.3-12.2,15.24-18.76h50.22c-8.07,25.5-20.31,43.68-37,54.64-16.52,11-36.65,16.48-60.12,16.48-16.36,0-31.08-2.69-44.29-8a94.17,94.17,0,0,1-33.53-22.74,105.06,105.06,0,0,1-21.08-35.3,131.78,131.78,0,0,1-7.46-45.12,126.69,126.69,0,0,1,7.67-44.31,104.27,104.27,0,0,1,21.75-35.49,103,103,0,0,1,33.64-23.59c13-5.75,27.39-8.63,43.3-8.63,17.56,0,32.94,3.45,46.13,10.47a92.36,92.36,0,0,1,32.39,28.07A115.94,115.94,0,0,1,517.81,252,152.4,152.4,0,0,1,521.77,299.08Zm-57-36.65c-1.36-14.8-6.34-25.78-13.14-33.48s-18.27-11.8-32.27-11.8c-9.12,0-16.65,1.56-22.69,4.75a45.87,45.87,0,0,0-14.43,11.66,42,42,0,0,0-7.66,14.93,68.22,68.22,0,0,0-2.6,13.94Z"/></svg>
