<?xml version="1.0" encoding="utf-8"?>
<!-- Generator: Adobe Illustrator 22.1.0, SVG Export Plug-In . SVG Version: 6.00 Build 0)  -->
<svg version="1.1" id="Layer_1" xmlns="http://www.w3.org/2000/svg" xmlns:xlink="http://www.w3.org/1999/xlink" x="0px" y="0px"
	 viewBox="0 0 56.7 56.7" style="enable-background:new 0 0 56.7 56.7;" xml:space="preserve">
<style type="text/css">
	.st0{fill:#77787B;}
	.st1{fill:#00AA4E;}
	.st2{fill:#231F20;}
</style>
<g>
	<polyline class="st0" points="36.5,5.1 36.5,18.9 31.6,18.9 31.6,1.9 	"/>
	<path class="st0" d="M31.6,1.9c1.8,0.8,3.4,1.9,4.9,3.2"/>
	<path class="st0" d="M36.5,18.9V5.1c-1.5-1.3-3.1-2.3-4.9-3.2v17H36.5z"/>
</g>
<g>
	<polyline class="st1" points="29.3,1 29.3,18.9 24.4,18.9 24.4,0.1 	"/>
	<path class="st1" d="M24.4,0.1c1.7,0.1,3.3,0.4,4.9,0.9"/>
	<path class="st1" d="M29.3,18.9V1c-1.5-0.5-3.2-0.8-4.9-0.9v18.7H29.3z"/>
</g>
<g>
	<polyline class="st0" points="38.2,33.2 24.4,33.2 24.4,28.3 41.4,28.3 	"/>
	<path class="st0" d="M41.4,28.3c-0.8,1.8-1.9,3.4-3.2,4.9"/>
	<path class="st0" d="M24.4,33.2h13.8c1.3-1.5,2.3-3.1,3.2-4.9h-17V33.2z"/>
</g>
<g>
	<polyline class="st1" points="42.3,25.9 24.4,25.9 24.4,21.1 43.2,21.1 	"/>
	<path class="st1" d="M43.2,21.1c-0.1,1.7-0.4,3.3-0.9,4.9"/>
	<path class="st1" d="M24.4,25.9h17.9c0.5-1.5,0.8-3.2,0.9-4.9H24.4V25.9z"/>
</g>
<g>
	<polyline class="st0" points="10.1,34.9 10.1,21.1 15,21.1 15,38 	"/>
	<path class="st0" d="M15,38c-1.8-0.8-3.4-1.9-4.9-3.2"/>
	<path class="st0" d="M10.1,21.1v13.8c1.5,1.3,3.1,2.3,4.9,3.2v-17H10.1z"/>
</g>
<g>
	<polyline class="st1" points="17.3,38.9 17.3,21.1 22.2,21.1 22.2,39.8 	"/>
	<path class="st1" d="M22.2,39.8c-1.7-0.1-3.3-0.4-4.9-0.9"/>
	<path class="st1" d="M17.3,21.1v17.9c1.5,0.5,3.2,0.8,4.9,0.9V21.1H17.3z"/>
</g>
<g>
	<polyline class="st0" points="8.4,6.8 22.2,6.8 22.2,11.6 5.2,11.6 	"/>
	<path class="st0" d="M5.2,11.6c0.8-1.8,1.9-3.4,3.2-4.9"/>
	<path class="st0" d="M22.2,6.8H8.4c-1.3,1.5-2.3,3.1-3.2,4.9h17V6.8z"/>
</g>
<g>
	<polyline class="st1" points="4.3,14 22.2,14 22.2,18.9 3.5,18.9 	"/>
	<path class="st1" d="M3.5,18.9c0.1-1.7,0.4-3.3,0.9-4.9"/>
	<path class="st1" d="M22.2,14H4.3c-0.5,1.5-0.8,3.2-0.9,4.9h18.7V14z"/>
</g>
<g>
	<path class="st2" d="M7,48.7c0-0.6,0-0.6-0.3-0.6H5.9c-1.1,0-1.5,0.1-1.9,1.2c-0.1,0.1-0.3,0-0.4-0.1c0.2-0.7,0.4-1.6,0.5-2
		c0,0,0.1-0.1,0.1-0.1c0,0,0.1,0,0.1,0.1c0.1,0.3,0.2,0.4,1.1,0.4h5c0.6,0,0.8,0,0.9-0.4c0,0,0.1-0.1,0.1-0.1c0.1,0,0.1,0,0.2,0.1
		c-0.1,0.6-0.2,1.7-0.2,2.2c-0.1,0.1-0.3,0.1-0.4,0c-0.2-1.1-0.4-1.3-1.7-1.3H8.7c-0.3,0-0.3,0-0.3,0.6v5.8c0,1.4,0.1,1.5,0.7,1.5
		l0.4,0.1c0.1,0.1,0.1,0.3,0,0.4c-0.7,0-1.3,0-1.8,0c-0.5,0-1.1,0-1.9,0c-0.1-0.1-0.1-0.3,0-0.4l0.5-0.1C6.8,56,7,56,7,54.5V48.7z"
		/>
	<path class="st2" d="M11,52.9c0-0.6,0-0.8-0.3-1l-0.1-0.1c0-0.1,0-0.2,0-0.3c0.5-0.2,1.2-0.5,1.5-0.7c0.1,0,0.1,0,0.2,0.1
		c0,0.3,0,0.5,0,0.6c0,0.1,0,0.2,0.1,0.2c0.4-0.3,0.8-0.7,1.2-0.7c0.4,0,0.7,0.3,0.7,0.7c0,0.5-0.4,0.8-0.7,0.8
		c-0.1,0-0.2,0-0.3-0.1C13,52.1,12.7,52,12.7,52c-0.3,0-0.4,0.3-0.4,1v1.9c0,1,0,1.2,0.5,1.2l0.5,0.1c0.1,0.1,0.1,0.3,0,0.4
		c-0.7,0-1.1,0-1.6,0c-0.4,0-0.8,0-1.3,0c-0.1-0.1-0.1-0.3,0-0.4l0.2,0C11,56,11,55.9,11,54.9V52.9z"/>
	<path class="st2" d="M18,51.6c0.5-0.4,1-0.6,1.7-0.6c1.1,0,1.7,0.8,1.7,1.5c0,0.2-0.1,0.3-0.4,0.4l-2.5,0.8
		c-0.2,0.1-0.2,0.1-0.2,0.2V54c0,1,0.8,1.7,1.6,1.7c0.6,0,1-0.2,1.3-0.7c0.1,0,0.2,0.1,0.2,0.2c-0.4,0.9-1.1,1.4-2.1,1.4
		c-0.9,0-1.5-0.4-1.8-0.9L17,56.1c-0.5,0.4-1,0.6-1.5,0.6c-0.9,0-1.2-0.6-1.2-1.3c0-0.5,0.2-0.9,1-1.3c0.4-0.2,0.9-0.3,1.4-0.5
		c0.2-0.1,0.2-0.1,0.2-0.3v-0.5c0-0.6-0.1-1.3-0.8-1.3c-0.3,0-0.6,0.2-0.7,0.6c0,0.3-0.1,0.4-0.2,0.5c-0.1,0.1-0.5,0.3-0.8,0.3
		c-0.1,0-0.2-0.1-0.2-0.2c0-0.2,0.1-0.5,0.5-0.9c0.4-0.4,1.3-0.9,1.9-0.9C17.2,51,17.8,51.1,18,51.6z M17,54.4c0-0.2,0-0.2-0.1-0.2
		c-0.1,0-0.3,0.1-0.6,0.2c-0.4,0.1-0.7,0.3-0.7,0.8c0,0.4,0.2,0.8,0.7,0.8c0.3,0,0.6-0.2,0.6-0.6V54.4z M19.8,52.7
		c0.3-0.1,0.4-0.2,0.4-0.3c0-0.4-0.3-0.9-0.8-0.9c-0.7,0-1.2,0.8-1.2,1.5v0.1c0,0.1,0,0.1,0.3,0L19.8,52.7z"/>
	<path class="st2" d="M23.8,51.8c-0.3,0-0.3,0-0.3,0.4v2.7c0,1,0,1.2,0.5,1.2l0.5,0.1c0.1,0.1,0.1,0.3,0,0.4c-0.5,0-1,0-1.6,0
		c-0.4,0-0.8,0-1.3,0c-0.1-0.1-0.1-0.3,0-0.4l0.3,0c0.4-0.1,0.5-0.2,0.5-1.2v-2.7c0-0.4,0-0.4-0.2-0.4h-0.4c-0.1-0.1-0.1-0.2,0-0.3
		l0.5-0.3c0.1-0.1,0.2-0.1,0.2-0.3v-0.2c0-0.6,0-1.2,0.3-1.9c0.3-1.1,1.1-1.9,2.3-1.9c0.8,0,1.4,0.4,1.4,1c0,0.4-0.3,0.6-0.6,0.6
		c-0.2,0-0.3-0.1-0.4-0.2c-0.4-0.6-0.7-0.9-1-0.9c-0.4,0-0.7,0.9-0.7,3v0.4c0,0.4,0,0.4,0.3,0.4h1.3c0,0,0.1,0.1,0.1,0.2
		c0,0.2-0.1,0.4-0.2,0.4H23.8z"/>
	<path class="st2" d="M30.3,53.8c0,1.9-1.2,2.9-2.7,2.9c-1.4,0-2.6-1-2.6-2.8c0-1.8,1.2-3,2.7-3C29.1,51,30.3,52,30.3,53.8z
		 M27.7,56.1c0.8,0,1.1-1.1,1.1-2.2c0-1.1-0.4-2.5-1.3-2.5c-0.6,0-1.1,0.7-1.1,2.2C26.5,54.9,26.9,56.1,27.7,56.1z"/>
	<path class="st2" d="M32.7,54.9c0,1,0,1.2,0.5,1.2l0.2,0c0.1,0.1,0.1,0.3,0,0.4c-0.4,0-0.8,0-1.3,0c-0.4,0-0.8,0-1.3,0
		c-0.1-0.1-0.1-0.3,0-0.4l0.3,0c0.4-0.1,0.5-0.2,0.5-1.2v-2c0-0.6,0-0.8-0.3-1L31,51.8c0-0.1,0-0.2,0-0.3c0.5-0.2,1.2-0.5,1.6-0.7
		c0.1,0,0.1,0.1,0.2,0.1c0,0.3,0,0.5,0,0.6c0,0.1,0,0.1,0.1,0.1c0.6-0.4,0.9-0.7,1.7-0.7c1,0,1.4,0.8,1.4,1.8v2.1c0,1,0,1.2,0.5,1.2
		l0.3,0c0.1,0.1,0.1,0.3,0,0.4c-0.5,0-0.9,0-1.4,0c-0.4,0-0.8,0-1.2,0c-0.1-0.1-0.1-0.3,0-0.4l0.2,0c0.4-0.1,0.5-0.2,0.5-1.2V53
		c0-0.7-0.2-1.2-1-1.2c-0.4,0-0.7,0.2-0.8,0.4c-0.2,0.2-0.2,0.4-0.2,0.9V54.9z"/>
	<path class="st2" d="M42,54.3c0,1.2,0.1,1.7,0.3,1.7c0.1,0,0.3,0,0.5-0.1c0.1,0.1,0.1,0.4,0,0.5c-0.6,0.1-1.5,0.3-1.9,0.5
		c-0.1,0-0.1-0.1-0.1-0.1l0-0.2c0-0.2,0-0.3,0-0.4l-0.1,0c-0.4,0.3-0.8,0.6-1.4,0.6c-1.4,0-2.3-1.2-2.3-2.6c0-1.9,1.4-3.1,2.9-3.1
		c0.3,0,0.5,0,0.7,0.1c0,0,0.1-0.1,0.1-0.2v-1.8c0-0.9,0-1-0.3-1.2l-0.2-0.1c-0.1-0.1-0.1-0.3,0-0.3c0.5-0.1,1.1-0.4,1.6-0.6
		c0.1,0,0.1,0,0.2,0.1c0,0.5,0,1.4,0,2V54.3z M40.7,52.6c0-0.3,0-0.5-0.2-0.6c-0.2-0.3-0.4-0.5-0.8-0.5c-0.8,0-1.4,0.9-1.4,2
		c0,1.4,0.7,2.3,1.5,2.3c0.3,0,0.6-0.2,0.7-0.3c0.1-0.1,0.1-0.2,0.1-0.4V52.6z"/>
	<path class="st2" d="M44.4,53.3c-0.2,0-0.3,0-0.3,0.2c0,1.2,0.8,2.2,1.8,2.2c0.5,0,0.9-0.2,1.2-0.7c0.1,0,0.3,0.1,0.3,0.2
		c-0.4,1.1-1.3,1.5-2.1,1.5C44,56.7,43,55.5,43,54c0-1.5,0.9-3,2.6-3c0.9,0,1.8,0.6,1.8,1.8c0,0.1,0,0.2-0.1,0.3
		c-0.1,0.1-0.4,0.2-0.8,0.2H44.4z M45.5,52.7c0.4,0,0.5,0,0.6-0.1c0.1-0.1,0.1-0.2,0.1-0.3c0-0.5-0.3-0.9-0.8-0.9
		c-0.8,0-1.2,0.9-1.2,1.2c0,0.1,0,0.1,0.2,0.1H45.5z"/>
	<path class="st2" d="M49.7,54.9c0,1,0,1.2,0.5,1.2l0.2,0c0.1,0.1,0.1,0.3,0,0.4c-0.4,0-0.8,0-1.3,0c-0.4,0-0.8,0-1.3,0
		c-0.1-0.1-0.1-0.3,0-0.4l0.3,0c0.4-0.1,0.5-0.2,0.5-1.2v-2c0-0.6,0-0.8-0.3-1L48,51.8c0-0.1,0-0.2,0-0.3c0.5-0.2,1.2-0.5,1.6-0.7
		c0.1,0,0.1,0.1,0.2,0.1c0,0.3,0,0.5,0,0.6c0,0.1,0,0.1,0.1,0.1c0.6-0.4,0.9-0.7,1.7-0.7c1,0,1.5,0.8,1.5,1.8v2.1c0,1,0,1.2,0.5,1.2
		l0.3,0c0.1,0.1,0.1,0.3,0,0.4c-0.5,0-0.9,0-1.4,0c-0.4,0-0.8,0-1.2,0c-0.1-0.1-0.1-0.3,0-0.4l0.2,0c0.4-0.1,0.5-0.2,0.5-1.2V53
		c0-0.7-0.2-1.2-1-1.2c-0.4,0-0.7,0.2-0.8,0.4c-0.2,0.2-0.2,0.4-0.2,0.9V54.9z"/>
</g>
</svg>
