<?xml version="1.0" encoding="utf-8"?>
<!-- Generator: Adobe Illustrator 22.1.0, SVG Export Plug-In . SVG Version: 6.00 Build 0)  -->
<svg version="1.1" id="Layer_1" xmlns="http://www.w3.org/2000/svg" xmlns:xlink="http://www.w3.org/1999/xlink" x="0px" y="0px"
	 viewBox="0 0 56.7 56.7" style="enable-background:new 0 0 56.7 56.7;" xml:space="preserve">
<style type="text/css">
	.st0{fill:#231F20;}
</style>
<g>
	<path class="st0" d="M5.7,25.4l-5.6,0.4v0.8l5.7-0.4L5.7,25.4z M9.1,22.1l-9-0.3V22l9,0.3L9.1,22.1z M0.1,29v0.8l4.5,0.7l-4.5,0.9
		v0.2l5-1l3.3,0.5l-8.3,1.2v0.2l9-1.3l7.3,1.2v-0.8l-4.6-0.8l4.6-0.7V30l-5.3,0.7l-3.7-0.6l5.9-1.2l0-0.2l-6.4,1.3l-5.4-0.9
		l14.9-0.8v-0.2L0.5,29L0.1,29z M8.7,36.2l0-0.2l-8.6,0.8v0.9l16.2,0.7v-0.8L1.1,36.9L8.7,36.2z M0.1,38.2V39l3.6,0.7l-3.6,0.1v0.2
		l4.5-0.1l5.1,0.9l-5,0.4l-4.7-0.8v0.2L4,41.2l-3.9,0.3v0.2l4.6-0.4l2.3,0.4l0-0.2l-1.5-0.3l5-0.4l5.8,1.1v-0.8l-7.8-1.4l7.8-0.2
		v-0.2l-8.7,0.2L0.1,38.2z M3.9,33.9l7.9-0.6l-0.1-0.8L0.1,33.4v0.8l4.4,0.6l-4.4,0.4V36l7.8-0.7l8.5,1.2v-0.8l-5-0.7l5-0.5v-0.8
		l-8.4,0.8L3.9,33.9z M0.1,24.9v0.2L11.4,25l-7.2,2.1l-4.1,0.1v0.2l3.3-0.1l-3.3,1v0.2l4.1-1.2l12.1-0.4v-0.2L5,27.1l7.2-2.1l4.2,0
		v-0.2l-3.5,0l3.5-1v-0.2l-4.2,1.2L0.1,24.9z M0.1,24.1v0.2l16.2-1.9v-0.2L0.1,24.1z"/>
	<g>
		<path class="st0" d="M22.8,38.4c-0.4,0-0.7-0.2-0.8-0.5l0.4-0.2c0.1,0.2,0.2,0.3,0.4,0.3c0.3,0,0.3-0.1,0.3-0.2
			c0-0.1,0-0.2-0.2-0.2c-0.4-0.1-0.9-0.1-0.9-0.7c0-0.4,0.3-0.6,0.8-0.6c0.4,0,0.6,0.1,0.8,0.4l-0.4,0.2c-0.1-0.1-0.2-0.2-0.4-0.2
			c-0.2,0-0.3,0.1-0.3,0.2c0,0.1,0,0.1,0.1,0.2c0.4,0.1,1,0.1,1,0.7C23.6,38.2,23.3,38.4,22.8,38.4z"/>
		<path class="st0" d="M24.8,36.8v1.6h-0.5v-1.6h-0.6v-0.4h1.7v0.4H24.8z"/>
		<path class="st0" d="M28.4,36.8v1.6h-0.5v-1.6h-0.6v-0.4h1.7v0.4H28.4z"/>
		<path class="st0" d="M32.6,38.4l-0.9-1.2c0,0,0,0.1,0,0.1v1.1h-0.5v-2h0.4l0.9,1.2c0,0,0-0.1,0-0.1v-1H33v2H32.6z"/>
		<path class="st0" d="M34.2,38.4c-0.4,0-0.7-0.2-0.8-0.5l0.4-0.2c0.1,0.2,0.2,0.3,0.4,0.3c0.3,0,0.3-0.1,0.3-0.2
			c0-0.1,0-0.2-0.2-0.2c-0.4-0.1-0.9-0.1-0.9-0.7c0-0.4,0.3-0.6,0.8-0.6c0.4,0,0.6,0.1,0.8,0.4l-0.4,0.2c-0.1-0.1-0.2-0.2-0.4-0.2
			c-0.2,0-0.3,0.1-0.3,0.2c0,0.1,0,0.1,0.1,0.2c0.4,0.1,1,0.1,1,0.7C35.1,38.2,34.8,38.4,34.2,38.4z"/>
		<path class="st0" d="M37.3,38.4h-0.5l-0.8-2h0.6l0.4,1.2c0,0.1,0,0.1,0,0.2c0-0.1,0-0.1,0-0.2l0.4-1.2h0.5L37.3,38.4z"/>
		<path class="st0" d="M42.3,38.4l-0.4-0.7h-0.1v0.7h-0.5v-2H42c0.6,0,0.8,0.2,0.8,0.6c0,0.3-0.1,0.5-0.4,0.6l0.5,0.8H42.3z
			 M42,36.8h-0.2v0.5H42c0.2,0,0.3-0.1,0.3-0.2C42.2,36.9,42.2,36.8,42,36.8z"/>
		<path class="st0" d="M44.3,38.4l-0.6-0.7l0,0v0.7h-0.5v-2h0.5V37l0.6-0.7H45l-0.9,0.9l0.9,1.1H44.3z"/>
		<path class="st0" d="M46,38.4c-0.4,0-0.7-0.2-0.8-0.5l0.4-0.2c0.1,0.2,0.2,0.3,0.4,0.3c0.3,0,0.3-0.1,0.3-0.2c0-0.1,0-0.2-0.2-0.2
			c-0.4-0.1-0.9-0.1-0.9-0.7c0-0.4,0.3-0.6,0.8-0.6c0.4,0,0.6,0.1,0.8,0.4l-0.4,0.2c-0.1-0.1-0.2-0.2-0.4-0.2
			c-0.2,0-0.3,0.1-0.3,0.2c0,0.1,0,0.1,0.1,0.2c0.4,0.1,1,0.1,1,0.7C46.8,38.2,46.5,38.4,46,38.4z"/>
		<path class="st0" d="M48,36.8v1.6h-0.5v-1.6H47v-0.4h1.7v0.4H48z"/>
		<path class="st0" d="M51.5,38.4h-0.7v-2h0.7c0.8,0,1,0.4,1,1C52.6,37.9,52.3,38.4,51.5,38.4z M51.5,36.8h-0.2V38h0.2
			c0.4,0,0.5-0.2,0.5-0.6C52.1,36.9,51.9,36.8,51.5,36.8z"/>
		<path class="st0" d="M24.6,41.8c-0.8,0-0.9-0.5-0.9-1.1c0-0.5,0.2-1,0.9-1c0.8,0,0.9,0.5,0.9,1C25.5,41.3,25.3,41.8,24.6,41.8z
			 M24.6,40.2c-0.3,0-0.4,0.2-0.4,0.6c0,0.5,0.1,0.7,0.4,0.7c0.3,0,0.4-0.2,0.4-0.7C25,40.3,24.9,40.2,24.6,40.2z"/>
		<path class="st0" d="M31.5,41.8c-0.5,0-0.9-0.3-0.9-0.9v-1.2h0.5V41c0,0.4,0.1,0.5,0.4,0.5c0.3,0,0.4-0.1,0.4-0.5v-1.2h0.5V41
			C32.4,41.6,32.1,41.8,31.5,41.8z"/>
		<path class="st0" d="M34.3,41.8l-0.9-1.2c0,0,0,0.1,0,0.1v1.1h-0.5v-2h0.4l0.9,1.2c0,0,0-0.1,0-0.1v-1h0.5v2H34.3z"/>
		<path class="st0" d="M36,41.8c-0.4,0-0.7-0.2-0.8-0.5l0.4-0.2c0.1,0.2,0.2,0.3,0.4,0.3c0.3,0,0.3-0.1,0.3-0.2c0-0.1,0-0.2-0.2-0.2
			c-0.4-0.1-0.9-0.1-0.9-0.7c0-0.4,0.3-0.6,0.8-0.6c0.4,0,0.6,0.1,0.8,0.4l-0.4,0.2c-0.1-0.1-0.2-0.2-0.4-0.2
			c-0.2,0-0.3,0.1-0.3,0.2c0,0.1,0,0.1,0.1,0.2c0.4,0.1,1,0.1,1,0.7C36.9,41.6,36.5,41.8,36,41.8z"/>
		<path class="st0" d="M38.2,40.2v1.6h-0.5v-1.6h-0.6v-0.4h1.7v0.4H38.2z"/>
	</g>
	<g>
		<path class="st0" d="M22.6,30H22v-2h0.6c0.7,0,1,0.4,1,1C23.6,29.6,23.3,30,22.6,30z M22.6,28.3h-0.3v1.5h0.3
			c0.5,0,0.7-0.3,0.7-0.8C23.3,28.5,23.1,28.3,22.6,28.3z"/>
		<path class="st0" d="M25.2,30L25,29.5h-0.8L24.1,30h-0.3l0.8-2h0.3l0.7,2H25.2z M24.7,28.5c0,0,0-0.1,0-0.1
			C24.6,28.4,24.6,28.5,24.7,28.5l-0.3,0.7h0.6L24.7,28.5z"/>
		<path class="st0" d="M27.3,30l-1.1-1.5c0,0,0,0.1,0,0.1V30h-0.3v-2h0.3l1.1,1.5c0,0,0-0.1,0-0.1V28h0.3v2H27.3z"/>
		<path class="st0" d="M28.2,30v-2h0.3v2H28.2z"/>
		<path class="st0" d="M29.7,30.1c-0.4,0-0.6-0.2-0.7-0.4l0.2-0.1c0.1,0.2,0.2,0.3,0.5,0.3c0.4,0,0.5-0.2,0.5-0.4
			c0-0.2-0.1-0.3-0.3-0.3l-0.4-0.1c-0.3-0.1-0.5-0.2-0.5-0.5c0-0.3,0.2-0.6,0.7-0.6c0.4,0,0.6,0.2,0.7,0.3l-0.2,0.1
			c-0.1-0.1-0.2-0.2-0.4-0.2c-0.3,0-0.4,0.1-0.4,0.3c0,0.2,0.1,0.2,0.2,0.3l0.4,0.1c0.3,0.1,0.5,0.2,0.5,0.6
			C30.5,29.8,30.3,30.1,29.7,30.1z"/>
		<path class="st0" d="M32.3,30v-0.9h-1V30H31v-2h0.3v0.8h1V28h0.3v2H32.3z"/>
		<path class="st0" d="M23.4,33.5l-0.2-0.6h-0.8l-0.2,0.6h-0.3l0.8-2H23l0.7,2H23.4z M22.8,32c0,0,0-0.1,0-0.1
			C22.8,31.8,22.8,31.9,22.8,32l-0.3,0.7h0.6L22.8,32z"/>
		<path class="st0" d="M25.2,33.5l-0.5-0.8h-0.3v0.8h-0.3v-2h0.6c0.5,0,0.7,0.3,0.7,0.6c0,0.3-0.1,0.5-0.5,0.6l0.5,0.8H25.2z
			 M24.7,31.7h-0.4v0.7h0.4c0.3,0,0.4-0.1,0.4-0.3C25.1,31.8,25,31.7,24.7,31.7z"/>
		<path class="st0" d="M26.6,31.7v1.8h-0.3v-1.8h-0.6v-0.3h1.5v0.3H26.6z"/>
		<path class="st0" d="M30.2,33.5h-0.3l-0.4-1.4l-0.4,1.4h-0.3l-0.5-2h0.3l0.3,1.4c0,0,0,0.1,0,0.2c0-0.1,0-0.2,0-0.2l0.3-1.3h0.3
			l0.3,1.3c0,0,0,0.1,0,0.2c0-0.1,0-0.2,0-0.2l0.3-1.4h0.3L30.2,33.5z"/>
		<path class="st0" d="M31.8,33.5c-0.7,0-0.8-0.5-0.8-1.1c0-0.6,0.2-1,0.8-1c0.7,0,0.8,0.5,0.8,1C32.6,33.1,32.5,33.5,31.8,33.5z
			 M31.8,31.7c-0.4,0-0.5,0.3-0.5,0.8c0,0.6,0.1,0.8,0.5,0.8c0.4,0,0.5-0.3,0.5-0.8C32.3,32,32.2,31.7,31.8,31.7z"/>
		<path class="st0" d="M35.8,32.3l0.9,1.1h-0.4l-0.7-0.9l0,0l-0.2,0.2v0.7h-0.3v-2h0.3v0.9l0.9-0.9h0.4L35.8,32.3z"/>
		<path class="st0" d="M37.6,33.5c-0.4,0-0.6-0.2-0.7-0.4l0.2-0.1c0.1,0.2,0.2,0.3,0.5,0.3c0.4,0,0.5-0.2,0.5-0.4
			c0-0.2-0.1-0.3-0.3-0.3l-0.4-0.1c-0.3-0.1-0.5-0.2-0.5-0.5c0-0.3,0.2-0.6,0.7-0.6c0.4,0,0.6,0.2,0.7,0.3l-0.2,0.1
			c-0.1-0.1-0.2-0.2-0.4-0.2c-0.3,0-0.4,0.1-0.4,0.3c0,0.2,0.1,0.2,0.2,0.3l0.4,0.1c0.3,0.1,0.5,0.2,0.5,0.6
			C38.4,33.3,38.2,33.5,37.6,33.5z"/>
		<path class="st0" d="M40.2,33.5v-0.9h-1v0.9h-0.3v-2h0.3v0.8h1v-0.8h0.3v2H40.2z"/>
		<path class="st0" d="M41.7,33.5c-0.7,0-0.8-0.5-0.8-1.1c0-0.6,0.2-1,0.8-1c0.7,0,0.8,0.5,0.8,1C42.6,33.1,42.4,33.5,41.7,33.5z
			 M41.7,31.7c-0.4,0-0.5,0.3-0.5,0.8c0,0.6,0.1,0.8,0.5,0.8c0.4,0,0.5-0.3,0.5-0.8C42.3,32,42.2,31.7,41.7,31.7z"/>
		<path class="st0" d="M43.7,32.8h-0.4v0.7h-0.3v-2h0.7c0.5,0,0.7,0.3,0.7,0.6C44.5,32.5,44.3,32.8,43.7,32.8z M43.7,31.7h-0.4v0.8
			h0.4c0.3,0,0.4-0.1,0.4-0.4C44.2,31.9,44,31.7,43.7,31.7z"/>
		<path class="st0" d="M45.5,33.5c-0.4,0-0.6-0.2-0.7-0.4L45,33c0.1,0.2,0.2,0.3,0.5,0.3c0.4,0,0.5-0.2,0.5-0.4
			c0-0.2-0.1-0.3-0.3-0.3l-0.4-0.1c-0.3-0.1-0.5-0.2-0.5-0.5c0-0.3,0.2-0.6,0.7-0.6c0.4,0,0.6,0.2,0.7,0.3l-0.2,0.1
			c-0.1-0.1-0.2-0.2-0.4-0.2c-0.3,0-0.4,0.1-0.4,0.3c0,0.2,0.1,0.2,0.2,0.3l0.4,0.1c0.3,0.1,0.5,0.2,0.5,0.6
			C46.3,33.3,46,33.5,45.5,33.5z"/>
	</g>
	<path class="st0" d="M34.2,33.5l-0.5-0.8h-0.3v0.8h-0.3v-2h0.6c0.5,0,0.7,0.3,0.7,0.6c0,0.3-0.1,0.5-0.5,0.6l0.5,0.8H34.2z
		 M33.8,31.7h-0.4v0.7h0.4c0.3,0,0.4-0.1,0.4-0.3C34.2,31.8,34.1,31.7,33.8,31.7z"/>
	<path class="st0" d="M27,41.8l-0.4-0.7h-0.1v0.7h-0.5v-2h0.7c0.6,0,0.8,0.2,0.8,0.6c0,0.3-0.1,0.5-0.4,0.6l0.5,0.8H27z M26.6,40.2
		h-0.2v0.5h0.2c0.2,0,0.3-0.1,0.3-0.2C26.9,40.3,26.9,40.2,26.6,40.2z"/>
	<path class="st0" d="M29.8,41.8l-0.6-0.7l0,0v0.7h-0.5v-2h0.5v0.7l0.6-0.7h0.6l-0.9,0.9l0.9,1.1H29.8z"/>
	<path class="st0" d="M55.8,38.4l-0.4-0.7h-0.1v0.7h-0.5v-2h0.7c0.6,0,0.8,0.2,0.8,0.6c0,0.3-0.1,0.5-0.4,0.6l0.5,0.8H55.8z
		 M55.5,36.8h-0.2v0.5h0.2c0.2,0,0.3-0.1,0.3-0.2C55.8,36.9,55.7,36.8,55.5,36.8z"/>
	<path class="st0" d="M26.9,38.4L26.7,38H26l-0.1,0.4h-0.5l0.8-2h0.5l0.8,2L26.9,38.4z M26.4,37L26.4,37l-0.3,0.6h0.5L26.4,37z"/>
	<path class="st0" d="M23.4,40.2h-0.9v0.4h0.7V41h-0.7l0,0.8H22v-2h1.4V40.2z"/>
	<path class="st0" d="M29.3,38.4v-2h1.4v0.4h-0.9v0.3h0.7v0.4h-0.7V38h0.9v0.4H29.3z"/>
	<path class="st0" d="M49,38.4v-2h1.4v0.4h-0.9v0.3h0.7v0.4h-0.7V38h0.9v0.4H49z"/>
	<path class="st0" d="M53,38.4v-2h1.4v0.4h-0.9v0.3h0.7v0.4h-0.7V38h0.9v0.4H53z"/>
	<path class="st0" d="M39.3,38.4V38h-0.6l-0.2,0.4H38l1-2h1.7v0.4h-0.9v0.3h0.7v0.4h-0.7V38h0.9v0.4H39.3z M39.3,36.8L39.3,36.8
		l-0.4,0.7h0.4V36.8z"/>
</g>
</svg>
