<svg xmlns="http://www.w3.org/2000/svg" viewBox="0 0 1188.12 711.07"><defs><style>.b8af27ab-1913-4e7d-9444-2680d6069da7{fill:#1d1d1b;}</style></defs><title>collab</title><g id="7ed49a4a-311e-4331-bc8b-fbb8a901b801" data-name="Layer 1"><path class="b8af27ab-1913-4e7d-9444-2680d6069da7" d="M113.91,375.38H93V328.22h20.9c16.44,0,25.08,7.53,25.08,23.48s-8.56,23.68-25.08,23.68m-2.43-36.71h-3.76V365h3.76c9.82,0,12.47-5.16,12.47-13.45C124,341.87,120.18,338.67,111.48,338.67Z"/><path class="b8af27ab-1913-4e7d-9444-2680d6069da7" d="M176.62,375.38l-3.77-11.28H158.78l-3.68,11.28H139.62l17.63-47.16h17.63l17.7,47.16h-16m-10.38-35.46h-1l-4.61,15.26H171Z"/><path class="b8af27ab-1913-4e7d-9444-2680d6069da7" d="M228.88,375.38l-16.44-24.45a21,21,0,0,1-1.68-3.13l-.27.14a31.67,31.67,0,0,1,.27,4.87v22.57H198.15V328.22h13.66l16.44,24.45a22.61,22.61,0,0,1,1.68,3.14l.27-.14s-.27-2.58-.27-4.88V328.22h12.6v47.16H228.88"/><rect class="b8af27ab-1913-4e7d-9444-2680d6069da7" x="253.67" y="328.22" width="14.71" height="47.16"/><path class="b8af27ab-1913-4e7d-9444-2680d6069da7" d="M296.81,376.22c-10.74,0-18.05-3.9-20.91-11.49l12-4c1.39,4.32,5,5.72,9.62,5.72s7.1-2.09,7.1-5.16c0-9.69-27.45,2.38-27.45-19.16,0-8.78,8.65-14.77,19.78-14.77,10.6,0,16.86,2.93,19.59,8.15l-10.6,5.3c-1.6-3.28-5.08-4.18-8.71-4.18-3.9,0-6.13,1.53-6.13,4.18,0,7.94,27.59-2.85,27.59,18.61,0,10.1-8.7,16.78-21.87,16.78"/><polyline class="b8af27ab-1913-4e7d-9444-2680d6069da7" points="355.96 375.38 355.96 357.63 340.84 357.63 340.84 375.38 326.2 375.38 326.2 328.22 340.84 328.22 340.84 346.48 355.96 346.48 355.96 328.22 370.58 328.22 370.58 375.38 355.96 375.38"/><path class="b8af27ab-1913-4e7d-9444-2680d6069da7" d="M434.06,375.38,430.3,364.1H416.22l-3.68,11.28H397.06l17.64-47.16h17.63L450,375.38h-16m-10.37-35.46h-1.05L418,355.18h10.38Z"/><path class="b8af27ab-1913-4e7d-9444-2680d6069da7" d="M483.88,375.38l-10.67-17.69h-2.92v17.69H455.58V328.22h24.81c10.1,0,15.68,4.88,15.68,14.22,0,7.59-4,11-8.85,13l14.7,19.92h-18m-8.09-37.48h-5.5v10.39h5.43c3.7,0,5.58-1.68,5.58-5.51C481.3,339.43,479.28,337.9,475.79,337.9Z"/><polyline class="b8af27ab-1913-4e7d-9444-2680d6069da7" points="540.58 338.6 527.62 338.6 527.62 375.38 513 375.38 513 338.6 499.47 338.6 499.47 328.22 541.91 328.22 540.58 338.6"/><path class="b8af27ab-1913-4e7d-9444-2680d6069da7" d="M563.37,376.22c-10.72,0-18-3.9-20.91-11.49l12-4c1.39,4.32,5,5.72,9.62,5.72s7.11-2.09,7.11-5.16c0-9.69-27.46,2.38-27.46-19.16,0-8.78,8.65-14.77,19.78-14.77,10.6,0,16.87,2.93,19.59,8.15l-10.6,5.3c-1.6-3.28-5.08-4.18-8.7-4.18-3.91,0-6.14,1.53-6.14,4.18,0,7.94,27.59-2.85,27.59,18.61,0,10.1-8.7,16.78-21.87,16.78"/><polyline class="b8af27ab-1913-4e7d-9444-2680d6069da7" points="628.37 338.6 628.37 347.52 647.25 347.52 645.24 357.69 628.37 357.69 628.37 375.38 613.67 375.38 613.67 328.22 650.88 328.22 650.88 338.6 628.37 338.6"/><path class="b8af27ab-1913-4e7d-9444-2680d6069da7" d="M680.84,376.19c-14,0-26.13-8.5-26.13-24.32s12.14-24.45,26.13-24.45,26.33,8.71,26.33,24.45-12.26,24.32-26.33,24.32m.15-38c-6.35,0-11.51,4.67-11.51,13.59s5.16,13.59,11.51,13.59,11.41-4.67,11.41-13.59S687.32,338.15,681,338.15Z"/><path class="b8af27ab-1913-4e7d-9444-2680d6069da7" d="M737.28,375.8c-11.15,0-22.79-4.66-22.79-18v-30h14.64V357c0,4.93,3.07,7.94,7.8,7.94,4.52,0,7.32-3.14,7.32-7.94V327.8h14.62v30c0,13.24-10.3,18-21.59,18"/><path class="b8af27ab-1913-4e7d-9444-2680d6069da7" d="M800.75,375.38,784.3,350.93a20.56,20.56,0,0,1-1.67-3.13l-.28.14a30.56,30.56,0,0,1,.28,4.87v22.57H770V328.22h13.66l16.45,24.45a23.24,23.24,0,0,1,1.67,3.14l.28-.14s-.28-2.58-.28-4.88V328.22H814.4v47.16H800.75"/><path class="b8af27ab-1913-4e7d-9444-2680d6069da7" d="M846.45,375.38h-20.9V328.22h20.9c16.44,0,25.07,7.53,25.07,23.48s-8.55,23.68-25.07,23.68M844,338.67h-3.74V365H844c9.83,0,12.49-5.16,12.49-13.45C856.49,341.87,852.72,338.67,844,338.67Z"/><path class="b8af27ab-1913-4e7d-9444-2680d6069da7" d="M909.16,375.38,905.4,364.1H891.32l-3.68,11.28H872.17l17.63-47.16h17.62l17.71,47.16h-16m-10.37-35.46h-1l-4.61,15.26h10.39Z"/><polyline class="b8af27ab-1913-4e7d-9444-2680d6069da7" points="961.33 338.6 948.38 338.6 948.38 375.38 933.75 375.38 933.75 338.6 920.23 338.6 920.23 328.22 962.66 328.22 961.33 338.6"/><rect class="b8af27ab-1913-4e7d-9444-2680d6069da7" x="968.93" y="328.22" width="14.7" height="47.16"/><path class="b8af27ab-1913-4e7d-9444-2680d6069da7" d="M1017.07,376.19c-14,0-26.12-8.5-26.12-24.32s12.13-24.45,26.12-24.45,26.34,8.71,26.34,24.45-12.26,24.32-26.34,24.32m.15-38c-6.34,0-11.51,4.67-11.51,13.59s5.17,13.59,11.51,13.59,11.42-4.67,11.42-13.59S1023.55,338.15,1017.22,338.15Z"/><path class="b8af27ab-1913-4e7d-9444-2680d6069da7" d="M1081.46,375.38,1065,350.93a20,20,0,0,1-1.68-3.13l-.27.14a31.67,31.67,0,0,1,.27,4.87v22.57h-12.61V328.22h13.66l16.44,24.45a22,22,0,0,1,1.67,3.14l.28-.14s-.28-2.58-.28-4.88V328.22h12.61v47.16h-13.65"/></g></svg>
