<svg xmlns="http://www.w3.org/2000/svg" viewBox="0 0 1188.12 711.07"><defs><style>.ac85b603-112d-42c0-8d84-d442e385b9e7{fill:#7c7c7b;}.dd703cbe-daf6-4d8a-bf8f-2bd8975dd2d5{fill:#009e3d;}.ad7c345a-6a38-40ae-b336-bd33c7b8677b{fill:#1d1d1b;}</style></defs><title>collab</title><g id="26ac8903-8b3f-434b-b577-4abefc1a2880" data-name="Layer 1"><polyline class="ac85b603-112d-42c0-8d84-d442e385b9e7" points="651.3 187.19 651.3 287.29 615.97 287.29 615.97 164.22"/><path class="ac85b603-112d-42c0-8d84-d442e385b9e7" d="M616,164.21a144.84,144.84,0,0,1,35.34,23"/><path class="ac85b603-112d-42c0-8d84-d442e385b9e7" d="M651.31,287.29V187.19a144.84,144.84,0,0,0-35.34-23V287.29Z"/><polyline class="dd703cbe-daf6-4d8a-bf8f-2bd8975dd2d5" points="598.97 157.68 598.97 287.29 563.64 287.29 563.64 151.34"/><path class="dd703cbe-daf6-4d8a-bf8f-2bd8975dd2d5" d="M563.64,151.34A144.19,144.19,0,0,1,599,157.68"/><path class="dd703cbe-daf6-4d8a-bf8f-2bd8975dd2d5" d="M599,287.29V157.68a144.19,144.19,0,0,0-35.33-6.34v136Z"/><polyline class="ac85b603-112d-42c0-8d84-d442e385b9e7" points="663.74 391.12 563.64 391.12 563.64 355.79 686.72 355.79"/><path class="ac85b603-112d-42c0-8d84-d442e385b9e7" d="M686.71,355.79a144.46,144.46,0,0,1-23,35.33"/><path class="ac85b603-112d-42c0-8d84-d442e385b9e7" d="M563.64,391.12h100.1a144.46,144.46,0,0,0,23-35.33H563.64Z"/><polyline class="dd703cbe-daf6-4d8a-bf8f-2bd8975dd2d5" points="693.25 338.79 563.64 338.79 563.64 303.46 699.59 303.46"/><path class="dd703cbe-daf6-4d8a-bf8f-2bd8975dd2d5" d="M699.59,303.46a143.73,143.73,0,0,1-6.35,35.33"/><path class="dd703cbe-daf6-4d8a-bf8f-2bd8975dd2d5" d="M563.64,338.79h129.6a143.73,143.73,0,0,0,6.35-35.33h-136Z"/><polyline class="ac85b603-112d-42c0-8d84-d442e385b9e7" points="459.81 403.56 459.81 303.46 495.14 303.46 495.14 426.53"/><path class="ac85b603-112d-42c0-8d84-d442e385b9e7" d="M495.14,426.53a144.27,144.27,0,0,1-35.33-23"/><path class="ac85b603-112d-42c0-8d84-d442e385b9e7" d="M459.81,303.46v100.1a144.27,144.27,0,0,0,35.33,23V303.46Z"/><polyline class="dd703cbe-daf6-4d8a-bf8f-2bd8975dd2d5" points="512.14 433.06 512.14 303.46 547.47 303.46 547.47 439.41"/><path class="dd703cbe-daf6-4d8a-bf8f-2bd8975dd2d5" d="M547.47,439.41a143.73,143.73,0,0,1-35.33-6.35"/><path class="dd703cbe-daf6-4d8a-bf8f-2bd8975dd2d5" d="M512.14,303.46v129.6a143.73,143.73,0,0,0,35.33,6.35v-136Z"/><polyline class="ac85b603-112d-42c0-8d84-d442e385b9e7" points="447.37 199.62 547.47 199.62 547.47 234.96 424.4 234.96"/><path class="ac85b603-112d-42c0-8d84-d442e385b9e7" d="M424.4,235a144.51,144.51,0,0,1,23-35.34"/><path class="ac85b603-112d-42c0-8d84-d442e385b9e7" d="M547.47,199.62H447.37a144.51,144.51,0,0,0-23,35.34H547.47Z"/><polyline class="dd703cbe-daf6-4d8a-bf8f-2bd8975dd2d5" points="417.87 251.96 547.47 251.96 547.47 287.29 411.52 287.29"/><path class="dd703cbe-daf6-4d8a-bf8f-2bd8975dd2d5" d="M411.52,287.29A143.64,143.64,0,0,1,417.87,252"/><path class="dd703cbe-daf6-4d8a-bf8f-2bd8975dd2d5" d="M547.47,252H417.87a143.64,143.64,0,0,0-6.35,35.33h136Z"/><path class="ad7c345a-6a38-40ae-b336-bd33c7b8677b" d="M436.81,503.87c0-4.12-.08-4.32-2.38-4.32h-5c-8.13,0-10.52,1.08-13.79,9a2.08,2.08,0,0,1-2.83-.69c1.5-5.31,2.83-11.4,3.45-14.84a1,1,0,0,1,1-.39,1,1,0,0,1,.88.39c.44,2.46,1.68,2.56,7.7,2.56h36.08c4.34,0,5.66-.3,6.73-2.56a2.37,2.37,0,0,1,1.06-.39,1.35,1.35,0,0,1,1.15.49,75.9,75.9,0,0,0-1.33,15.63,2,2,0,0,1-2.74.29c-1.15-7.66-2.83-9.53-12.3-9.53h-5c-2.3,0-2.39.2-2.39,4.32v42.46c0,10.41.8,10.71,5,11.2l3.18.39c.62.69.53,2.46-.18,2.85-5.13-.19-9.11-.29-13-.29s-8,.1-13.71.29c-.7-.39-.79-2.36-.17-2.85l3.71-.49c4.16-.39,4.95-.69,4.95-11.1Z"/><path class="ad7c345a-6a38-40ae-b336-bd33c7b8677b" d="M466.45,534.34c0-4.43,0-5.6-2.21-7.08l-1.06-.69a2.93,2.93,0,0,1,.09-2.26,59.31,59.31,0,0,0,11.14-5.3,1.25,1.25,0,0,1,1.24.88c-.09,1.87-.17,3.54-.17,4.42,0,.69.35,1.18.88,1.18,2.74-2.16,5.66-5.11,8.67-5.11a4.65,4.65,0,0,1,4.86,4.82c0,3.83-2.56,5.7-4.95,5.7a4.15,4.15,0,0,1-2.39-.79c-2.21-1.67-3.71-1.87-4.24-1.87-2,0-2.57,2.26-2.57,7.08v13.46c0,7.28.35,8.36,3.45,8.75l3.45.39c.62.69.53,2.46-.18,2.85-5.3-.19-8.31-.29-11.58-.29-2.92,0-5.84.1-9.2.29-.71-.39-.8-2.16-.18-2.85l1.59-.29c3-.49,3.36-1.57,3.36-8.85Z"/><path class="ad7c345a-6a38-40ae-b336-bd33c7b8677b" d="M516.69,525a17.64,17.64,0,0,1,12-4.62c7.78,0,12.12,5.7,12.12,11,0,1.67-.62,2.16-2.66,2.85l-18.39,6c-1.51.49-1.77.89-1.77,1.48v1c0,7.37,5.83,12.58,11.67,12.58a10.43,10.43,0,0,0,9.55-5.11,1.41,1.41,0,0,1,1.77,1.38c-2.74,6.78-8.13,10.31-14.94,10.31-6.46,0-10.62-3-13-6.68l-3,2.26c-4,3-7.52,4.42-10.53,4.42-6.28,0-9-4.71-9-9.23,0-3.44,1.24-6.88,7.25-9.24l10.09-3.83c1.41-.5,1.68-.89,1.68-2.07v-3.34c.17-4.62-.71-9.34-5.58-9.34a4.75,4.75,0,0,0-4.86,4c-.27,1.87-.53,2.95-1.41,3.64a11.49,11.49,0,0,1-5.67,2A1.4,1.4,0,0,1,490.6,533c0-1.47.53-3.34,3.45-6.39,2.56-2.85,9.11-6.19,13.8-6.19C510.94,520.38,515.19,521.37,516.69,525Zm-7.16,20c0-1.18-.18-1.77-.71-1.77a15,15,0,0,0-4.07,1.28c-2.74,1.08-4.95,2.36-4.95,6.09,0,2.66,1.5,5.8,5.13,5.8,2,0,4.6-1.47,4.6-4.23Zm20.16-12c2.39-.79,2.92-1.47,2.92-2.26,0-2.65-2.21-6.39-6-6.39-5.22,0-8.58,5.7-8.58,11v.59c0,.49.35.79,2.21.2Z"/><path class="ad7c345a-6a38-40ae-b336-bd33c7b8677b" d="M559.23,526.38c-1.86,0-1.86.19-1.86,3v19.36c0,7.28.36,8.36,3.45,8.75l3.45.39c.62.69.53,2.46-.17,2.85-4-.19-7.43-.29-11.59-.29-2.92,0-5.93.1-9.55.29-.71-.39-.8-2.16-.18-2.85l2-.29c3-.49,3.36-1.57,3.36-8.85V529.33c0-2.66-.09-3-1.59-3h-3.19a1.54,1.54,0,0,1-.26-2.26l3.8-2.16a2.4,2.4,0,0,0,1.24-2.17V518A48.19,48.19,0,0,1,550,504c2.29-7.76,8.22-13.76,16.53-13.76,6.11,0,10.09,3.05,10.09,7.18a4.62,4.62,0,0,1-4.34,4.71,2.83,2.83,0,0,1-2.56-1.37c-2.83-4.52-4.78-6.49-6.9-6.49-3,0-5.4,6.68-5.4,21.42v3c0,2.95.09,3.15,2,3.15h9.29a2.05,2.05,0,0,1,.53,1.57,3.38,3.38,0,0,1-1.24,3Z"/><path class="ad7c345a-6a38-40ae-b336-bd33c7b8677b" d="M605.93,540.63c0,14-8.84,21.22-19.37,21.22-10.17,0-18.66-7.17-18.66-20,0-13.17,9-21.43,19.37-21.43C597.26,520.38,605.93,527.85,605.93,540.63Zm-18.31,17.29c6.11,0,7.87-8.06,7.87-15.62,0-8.26-2.56-18-9.11-18-4.51,0-8,5.11-8,16C578.34,549.27,581.25,557.92,587.62,557.92Z"/><path class="ad7c345a-6a38-40ae-b336-bd33c7b8677b" d="M624,548.78c0,7.28.36,8.36,3.36,9l1.33.19c.62.69.53,2.46-.18,2.85-3.09-.19-6.1-.29-9.37-.29-2.83,0-5.84.1-9.55.29-.71-.39-.8-2.16-.18-2.85l1.94-.29c3-.49,3.37-1.57,3.37-8.85V534.34c0-4.43,0-5.6-2.21-7.08l-1.07-.69a2.93,2.93,0,0,1,.09-2.26A56.59,56.59,0,0,0,623,519a1.23,1.23,0,0,1,1.15.78c-.18,1.87-.18,3.74-.18,4.52s.27.89.8,1c4.16-2.56,6.63-4.92,12.12-4.92,7.16,0,10.52,5.51,10.52,13.17v15.23c0,7.28.36,8.36,3.36,8.85l2,.29c.62.69.53,2.46-.18,2.85-3.72-.19-6.72-.29-10-.29q-4.36,0-9,.29c-.7-.39-.79-2.16-.17-2.85l1.32-.19c3-.59,3.36-1.67,3.36-9V535.22c0-5-1.76-8.94-7.07-8.94a7,7,0,0,0-5.84,3.05c-1.15,1.76-1.24,2.65-1.24,6.28Z"/><path class="ad7c345a-6a38-40ae-b336-bd33c7b8677b" d="M691.19,544.46c0,8.94.62,12,2.12,12a9.91,9.91,0,0,0,3.72-.89c.71.59.88,3-.09,3.54a50,50,0,0,0-14,3.74,1.54,1.54,0,0,1-1.07-1.09l.18-1.47a7.84,7.84,0,0,0-.09-2.75l-.44-.1c-2.65,2.16-5.93,4.42-10.17,4.42-10.08,0-16.36-9-16.36-18.86,0-14.16,10.17-22.61,21.22-22.61a16.24,16.24,0,0,1,5.13.69c.36-.1.53-.49.53-1.57V506.62c0-6.58-.08-7.27-2-8.55l-1.24-.88c-.53-.39-.62-2,0-2.26a121.7,121.7,0,0,0,11.59-4.72,1.18,1.18,0,0,1,1.24.79c-.18,3.93-.27,10-.27,14.25Zm-9.29-12.09a8,8,0,0,0-1.15-4.72,7,7,0,0,0-5.92-3.34c-6,0-9.82,6.59-9.82,14.84,0,10.12,4.78,16.81,11.06,16.81a7.9,7.9,0,0,0,5.21-2.17,4.13,4.13,0,0,0,.62-2.75Z"/><path class="ad7c345a-6a38-40ae-b336-bd33c7b8677b" d="M708.7,537.19c-1.68,0-1.86.1-1.86,1.27,0,8.85,5.49,15.92,13.36,15.92a8.93,8.93,0,0,0,8.49-4.91c.88-.29,1.86.69,1.95,1.57-3,7.87-9.56,10.81-14.95,10.81-10.26,0-17.07-8.45-17.07-19.65s6.81-21.82,18.66-21.82c6.55,0,13.27,4.72,13.27,13.27a5,5,0,0,1-.44,2.26c-.54.88-2.57,1.28-6.11,1.28Zm8.14-3.93c2.56,0,3.71-.3,4.33-.69a2.6,2.6,0,0,0,.89-2.07c0-3.53-2-6.38-5.84-6.38-5.93,0-8.67,6.38-8.67,8.45,0,.39.18.69,1.24.69Z"/><path class="ad7c345a-6a38-40ae-b336-bd33c7b8677b" d="M747.35,548.78c0,7.28.36,8.36,3.36,9l1.33.19c.62.69.53,2.46-.18,2.85-3.09-.19-6.1-.29-9.37-.29-2.83,0-5.84.1-9.55.29-.71-.39-.8-2.16-.18-2.85l1.94-.29c3-.49,3.37-1.57,3.37-8.85V534.34c0-4.43,0-5.6-2.22-7.08l-1.06-.69a2.93,2.93,0,0,1,.09-2.26,56.84,56.84,0,0,0,11.5-5.3,1.23,1.23,0,0,1,1.15.78c-.18,1.87-.18,3.74-.18,4.52s.27.89.8,1c4.16-2.56,6.63-4.92,12.12-4.92,7.16,0,10.52,5.51,10.52,13.17v15.23c0,7.28.35,8.36,3.36,8.85l2,.29c.61.69.53,2.46-.18,2.85-3.72-.19-6.72-.29-10-.29q-4.37,0-9,.29c-.71-.39-.79-2.16-.17-2.85l1.32-.19c3-.59,3.36-1.67,3.36-9V535.22c0-5-1.76-8.94-7.07-8.94a7,7,0,0,0-5.84,3.05c-1.15,1.76-1.24,2.65-1.24,6.28Z"/></g></svg>
