<svg xmlns="http://www.w3.org/2000/svg" viewBox="0 0 1188.12 711.07"><defs><style>.\32 913dfe8-faf2-4dcd-b4ca-aaf022a93c5c{fill:#1d1d1b;}</style></defs><title>collab</title><g id="e8cbd7dd-013b-492d-85eb-23b77075d7d4" data-name="Layer 1"><path class="2913dfe8-faf2-4dcd-b4ca-aaf022a93c5c" d="M305.88,257l-85.4,6.21v12.11L306.79,269Zm51.76-50.27-137.16-4.57v3l137.06,4.56ZM220.48,311.05v12.28l68.11,11.34-68.11,13.86v3.1L297,336.06l49.58,8.26L220.48,362v3L356.42,346l110.43,18.37V352.05l-70.42-11.72,70.42-9.89v-3l-80.28,11.28-56.39-9.38,89.14-18.14-.64-3-96.89,19.72-81.68-13.59L466.85,302v-3L226.47,312.05ZM351.26,421.52l-.34-3-130.44,12v13.08l246.37,10.06v-12.1l-231.14-9.43ZM220.48,450.66v12.56l54.3,9.92-54.3,1.55v3l68.58-1.95L366.89,490l-75.8,6.35-70.61-11.94v3l58.58,9.91-58.58,4.91v3l70.5-5.9,35,5.91.55-2.95-23.48-4,75.18-6.3,88.65,16.2V495.7L348.51,474.06l118.34-3.36v-3l-132.61,3.78Zm57.63-64,120.34-9.25-.93-12.06-177,13.61v11.79l66.36,9.36-66.36,6.24v12.14l118-11.1,128.34,18.1V413.24L390.5,402.47l76.35-7.18V383.15l-128,12ZM220.48,248.81v3L392,251,282.14,282.73l-61.66,1.9v3l50.06-1.55-50.06,14.47v3.15l62.22-18L466.85,280v-3L294.3,282.35,403,250.92l63.81-.32v-3l-53.24.26,53.24-15.39v-3.14l-64.29,18.58Zm0-12v3l246.37-29v-3Z"/><path class="2913dfe8-faf2-4dcd-b4ca-aaf022a93c5c" d="M564.38,454.42c-6.35,0-10.33-2.67-12.66-7.28l6-2.93c1.48,2.59,3.26,4,6.64,4,3.94,0,5-1.39,5-3.51,0-1.69-.63-2.58-2.83-3-6.48-1.06-14.06-1.06-14.06-10,0-5.93,5.12-9.11,12-9.11,5.89,0,9.49,1.95,12,6.06l-6.06,3c-1.27-2-2.92-2.92-5.93-2.92-3.22,0-4.49,1.1-4.49,2.71a2.14,2.14,0,0,0,2.12,2.46C569,434.94,577,435,577,444.43,577,450.86,572.3,454.42,564.38,454.42Z"/><path class="2913dfe8-faf2-4dcd-b4ca-aaf022a93c5c" d="M595.71,429.48v24.31h-7.66V429.48h-8.77v-6.23h25.16v6.23Z"/><path class="2913dfe8-faf2-4dcd-b4ca-aaf022a93c5c" d="M648.94,429.48v24.31h-7.66V429.48h-8.77v-6.23h25.16v6.23Z"/><path class="2913dfe8-faf2-4dcd-b4ca-aaf022a93c5c" d="M713,453.79,699.53,436a6,6,0,0,1,.34,1.73v16.06h-7.5V423.25h6.52L712.45,441a5.84,5.84,0,0,1-.34-2v-15.8h7.49v30.54Z"/><path class="2913dfe8-faf2-4dcd-b4ca-aaf022a93c5c" d="M738.27,454.42c-6.35,0-10.33-2.67-12.66-7.28l6-2.93c1.48,2.59,3.26,4,6.65,4,3.94,0,5-1.39,5-3.51,0-1.69-.63-2.58-2.83-3-6.49-1.06-14.07-1.06-14.07-10,0-5.93,5.13-9.11,12-9.11,5.89,0,9.49,1.95,12,6.06l-6.06,3c-1.27-2-2.93-2.92-5.93-2.92-3.22,0-4.49,1.1-4.49,2.71a2.14,2.14,0,0,0,2.12,2.46c6.82,1.1,14.82,1.15,14.82,10.59C750.85,450.86,746.19,454.42,738.27,454.42Z"/><path class="2913dfe8-faf2-4dcd-b4ca-aaf022a93c5c" d="M785.2,453.79h-7.11l-11.48-30.54H775l6.27,18.17a10.84,10.84,0,0,1,.38,2.62,11.07,11.07,0,0,1,.47-2.62l6.27-18.17h8.34Z"/><path class="2913dfe8-faf2-4dcd-b4ca-aaf022a93c5c" d="M860.59,453.79l-6.74-11.27h-2v11.27H844.2V423.25h11.14c8.43,0,12.2,3.64,12.2,9.7,0,4.23-1.95,7.16-5.89,8.59l8,12.25Zm-5.25-24.57h-3.51v7.37h3.51c3.52,0,4.41-1.6,4.41-3.64S858.69,429.22,855.34,429.22Z"/><path class="2913dfe8-faf2-4dcd-b4ca-aaf022a93c5c" d="M891.59,453.79,883,442.64l-.54.52v10.63h-7.62V423.25h7.62v10.29l9.15-10.29h9.74l-13.17,13.89,13.3,16.65Z"/><path class="2913dfe8-faf2-4dcd-b4ca-aaf022a93c5c" d="M916.27,454.42c-6.35,0-10.34-2.67-12.66-7.28l6-2.93c1.48,2.59,3.26,4,6.65,4,3.94,0,5-1.39,5-3.51,0-1.69-.64-2.58-2.84-3-6.48-1.06-14.06-1.06-14.06-10,0-5.93,5.12-9.11,12-9.11,5.89,0,9.49,1.95,12,6.06l-6,3c-1.28-2-2.93-2.92-5.94-2.92-3.21,0-4.48,1.1-4.48,2.71a2.14,2.14,0,0,0,2.11,2.46c6.82,1.1,14.83,1.15,14.83,10.59C928.85,450.86,924.19,454.42,916.27,454.42Z"/><path class="2913dfe8-faf2-4dcd-b4ca-aaf022a93c5c" d="M947.61,429.48v24.31h-7.67V429.48h-8.77v-6.23h25.16v6.23Z"/><path class="2913dfe8-faf2-4dcd-b4ca-aaf022a93c5c" d="M1000.61,453.79H990.23V423.25h10.38c11.39,0,15.84,6.52,15.84,14.91S1012.29,453.79,1000.61,453.79Zm0-24.36h-2.76v18.22h2.76c5.58,0,8-3.1,8-9.49C1008.65,432.18,1006.32,429.43,1000.61,429.43Z"/><path class="2913dfe8-faf2-4dcd-b4ca-aaf022a93c5c" d="M591.36,506.52c-11.47,0-14-7.66-14-16.26,0-7.79,2.54-15.59,14-15.59s14,7.8,14,15.59C605.38,498.9,602.84,506.52,591.36,506.52Zm0-25.49c-4.65,0-6.14,2.49-6.14,9.23,0,7.54,1.53,9.95,6.14,9.95s6.23-2.45,6.23-9.95C597.59,483.56,596,481,591.36,481Z"/><path class="2913dfe8-faf2-4dcd-b4ca-aaf022a93c5c" d="M697.37,506.52c-7.88,0-13.51-4.06-13.51-13.51V475.35h7.62V493c0,5.42,2.12,7.2,5.89,7.2s5.93-1.78,5.93-7.2V475.35H711V493C711,502.46,705.25,506.52,697.37,506.52Z"/><path class="2913dfe8-faf2-4dcd-b4ca-aaf022a93c5c" d="M739.19,505.89,725.72,488.1a6,6,0,0,1,.34,1.74v16.05h-7.5V475.35h6.52l13.56,17.79a5.94,5.94,0,0,1-.34-2v-15.8h7.49v30.54Z"/><path class="2913dfe8-faf2-4dcd-b4ca-aaf022a93c5c" d="M765.29,506.52c-6.35,0-10.33-2.67-12.66-7.28l6-2.93c1.49,2.59,3.26,4,6.65,4,3.94,0,5-1.39,5-3.51,0-1.7-.64-2.59-2.84-3-6.48-1.07-14.06-1.07-14.06-10,0-5.93,5.12-9.11,12-9.11,5.88,0,9.48,1.95,12,6.06l-6,3c-1.27-2-2.93-2.92-5.93-2.92-3.22,0-4.49,1.1-4.49,2.71a2.14,2.14,0,0,0,2.12,2.46c6.81,1.1,14.82,1.14,14.82,10.59C777.87,503,773.21,506.52,765.29,506.52Z"/><path class="2913dfe8-faf2-4dcd-b4ca-aaf022a93c5c" d="M797.56,481.58v24.31h-7.67V481.58h-8.77v-6.23h25.16v6.23Z"/><path class="2913dfe8-faf2-4dcd-b4ca-aaf022a93c5c" d="M562.05,327.55h-9V297h9c10.71,0,15,6.39,15,14.9S573,327.55,562.05,327.55Zm0-26.67h-4.53V323.7h4.53c7.11,0,10.46-3.94,10.46-11.77C572.51,304.48,569.16,300.88,562.05,300.88Z"/><path class="2913dfe8-faf2-4dcd-b4ca-aaf022a93c5c" d="M601.84,327.55l-3.39-9H587.06l-3.38,9H579.1L590.49,297h4.7l11.35,30.52Zm-8.59-23.2a10.7,10.7,0,0,1-.47-2.07,16.08,16.08,0,0,1-.47,2l-3.77,10.29H597Z"/><path class="2913dfe8-faf2-4dcd-b4ca-aaf022a93c5c" d="M633,327.55l-16.77-23a8.91,8.91,0,0,1,.26,1.73v21.25H612V297h4l16.77,23a12,12,0,0,1-.26-1.86V297h4.45v30.52Z"/><path class="2913dfe8-faf2-4dcd-b4ca-aaf022a93c5c" d="M646.91,327.55V297h4.41v30.52Z"/><path class="2913dfe8-faf2-4dcd-b4ca-aaf022a93c5c" d="M670.06,328.23c-5.71,0-9.27-2.46-11-6.14l3.72-1.9c1.44,2.62,3.69,4.1,7.28,4.1,5.34,0,7.07-2.54,7.07-5.54,0-2.54-1.1-4.11-4.15-4.62l-6.43-1.1c-4.78-.8-6.94-3.72-6.94-8.29,0-4.41,2.71-8.39,10.67-8.39,6.39,0,9,2.76,10.45,5.25L677,303.51c-1.27-2-3.22-3.26-6.69-3.26-4.74,0-6.18,1.78-6.18,4.49,0,2.53.89,3.59,3.47,4l6.35,1.05c4.82.81,7.79,3.65,7.79,8.94S678.19,328.23,670.06,328.23Z"/><path class="2913dfe8-faf2-4dcd-b4ca-aaf022a93c5c" d="M708.54,327.55V313.5H693v14.05h-4.45V297H693v12.36h15.53V297H713v30.52Z"/><path class="2913dfe8-faf2-4dcd-b4ca-aaf022a93c5c" d="M573.73,379.65l-3.38-9H559l-3.39,9H551l11.39-30.52h4.7l11.34,30.52Zm-8.59-23.19a12.74,12.74,0,0,1-.47-2.08,14.38,14.38,0,0,1-.46,2l-3.77,10.29h8.47Z"/><path class="2913dfe8-faf2-4dcd-b4ca-aaf022a93c5c" d="M600.75,379.65l-7.81-12.44h-4.51v12.44H584V349.13h9.82c7.75,0,11.05,3.81,11.05,9.15,0,4.32-2.2,7.36-7.07,8.55l8.34,12.82ZM593.85,353h-5.42v10.34h5.38c4.36,0,6.52-1.28,6.52-5C600.33,354.68,598.13,353,593.85,353Z"/><path class="2913dfe8-faf2-4dcd-b4ca-aaf022a93c5c" d="M622.81,353v26.67h-4.45V353h-9.18v-3.85H632V353Z"/><path class="2913dfe8-faf2-4dcd-b4ca-aaf022a93c5c" d="M677.12,379.65h-5l-5.59-21.2L661,379.65h-5l-7.24-30.52h4.58l5,20.83a23,23,0,0,1,.42,3.26,20.82,20.82,0,0,1,.47-3.26l5.2-19.9h4.32L674,370.43a14.57,14.57,0,0,1,.38,3,18.16,18.16,0,0,1,.38-3l5-21.3h4.57Z"/><path class="2913dfe8-faf2-4dcd-b4ca-aaf022a93c5c" d="M701.08,380.29c-10.33,0-12.74-6.94-12.74-16.26,0-8.38,2.41-15.57,12.74-15.57S714,355.65,714,364C714,373.39,711.41,380.29,701.08,380.29Zm0-27.94c-6.52,0-8.21,4.06-8.21,11.68,0,8.43,1.73,12.41,8.21,12.41s8.34-4,8.34-12.41C709.42,356.46,707.6,352.35,701.08,352.35Z"/><path class="2913dfe8-faf2-4dcd-b4ca-aaf022a93c5c" d="M761.86,362.34l13.63,17.31h-5.63l-10.75-13.54-.51-.68-3.13,3.09v11.13H751V349.13h4.44v13.59l14.18-13.59h6.18Z"/><path class="2913dfe8-faf2-4dcd-b4ca-aaf022a93c5c" d="M789.71,380.33c-5.71,0-9.27-2.45-11-6.14l3.73-1.9c1.44,2.62,3.68,4.1,7.28,4.1,5.33,0,7.07-2.53,7.07-5.54,0-2.54-1.1-4.11-4.15-4.61l-6.43-1.1c-4.78-.81-6.94-3.73-6.94-8.3,0-4.4,2.71-8.38,10.66-8.38,6.4,0,9,2.75,10.46,5.24l-3.77,1.91c-1.27-2-3.21-3.26-6.69-3.26-4.74,0-6.18,1.78-6.18,4.49,0,2.54.89,3.59,3.47,4l6.35,1.06c4.83.8,7.79,3.64,7.79,8.93S797.84,380.33,789.71,380.33Z"/><path class="2913dfe8-faf2-4dcd-b4ca-aaf022a93c5c" d="M828.19,379.65v-14H812.65v14h-4.44V349.13h4.44v12.36h15.54V349.13h4.44v30.52Z"/><path class="2913dfe8-faf2-4dcd-b4ca-aaf022a93c5c" d="M851.93,380.29c-10.33,0-12.74-6.94-12.74-16.26,0-8.38,2.41-15.57,12.74-15.57S864.8,355.65,864.8,364C864.8,373.39,862.26,380.29,851.93,380.29Zm0-27.94c-6.51,0-8.21,4.06-8.21,11.68,0,8.43,1.74,12.41,8.21,12.41s8.34-4,8.34-12.41C860.27,356.46,858.45,352.35,851.93,352.35Z"/><path class="2913dfe8-faf2-4dcd-b4ca-aaf022a93c5c" d="M882.32,368.52h-5.67v11.13h-4.44V349.13h10.11c7.79,0,11.09,4.36,11.09,9.74S890.2,368.52,882.32,368.52Zm0-15.54h-5.67v11.69h5.67c4.28,0,6.57-1.69,6.57-5.8C888.89,355,886.56,353,882.32,353Z"/><path class="2913dfe8-faf2-4dcd-b4ca-aaf022a93c5c" d="M908.91,380.33c-5.72,0-9.27-2.45-11-6.14l3.72-1.9c1.45,2.62,3.69,4.1,7.29,4.1,5.33,0,7.06-2.53,7.06-5.54,0-2.54-1.1-4.11-4.14-4.61l-6.44-1.1c-4.78-.81-6.94-3.73-6.94-8.3,0-4.4,2.71-8.38,10.67-8.38,6.39,0,9,2.75,10.45,5.24l-3.77,1.91c-1.27-2-3.21-3.26-6.68-3.26-4.74,0-6.18,1.78-6.18,4.49,0,2.54.89,3.59,3.47,4l6.35,1.06c4.82.8,7.79,3.64,7.79,8.93S917,380.33,908.91,380.33Z"/><path class="2913dfe8-faf2-4dcd-b4ca-aaf022a93c5c" d="M738.12,379.65l-7.81-12.44h-4.5v12.44h-4.45V349.13h9.82c7.75,0,11.05,3.81,11.05,9.15,0,4.32-2.2,7.36-7.07,8.55l8.34,12.82ZM731.22,353h-5.41v10.34h5.37c4.36,0,6.52-1.28,6.52-5C737.7,354.68,735.5,353,731.22,353Z"/><path class="2913dfe8-faf2-4dcd-b4ca-aaf022a93c5c" d="M628.09,505.91l-6.74-11.27h-2v11.27H611.7V475.37h11.14c8.43,0,12.2,3.64,12.2,9.7,0,4.24-1.95,7.16-5.89,8.6l8,12.24Zm-5.25-24.57h-3.51v7.37h3.51c3.52,0,4.41-1.61,4.41-3.64S626.19,481.34,622.84,481.34Z"/><path class="2913dfe8-faf2-4dcd-b4ca-aaf022a93c5c" d="M670.61,505.89,662,494.75l-.53.51v10.63h-7.63V475.35h7.63v10.29l9.14-10.29h9.75l-13.17,13.9,13.29,16.64Z"/><path class="2913dfe8-faf2-4dcd-b4ca-aaf022a93c5c" d="M1066,453.78l-6.75-11.26h-2v11.26h-7.63V423.25h11.14c8.43,0,12.2,3.64,12.2,9.7,0,4.23-2,7.16-5.89,8.59l8,12.24Zm-5.25-24.56h-3.51v7.37h3.51c3.51,0,4.4-1.61,4.4-3.64S1064.13,429.22,1060.79,429.22Z"/><path class="2913dfe8-faf2-4dcd-b4ca-aaf022a93c5c" d="M626.3,453.8l-2.12-5.64H612.72l-2.13,5.61H603l11.81-30.54h7.39L634,453.77Zm-7.36-20.19H618L615,442h6.93Z"/><path class="2913dfe8-faf2-4dcd-b4ca-aaf022a93c5c" d="M573.76,481.49h-13.4v5.59h10.35v6.17H560.35v12.49h-7.54V475.22h20.94Z"/><path class="2913dfe8-faf2-4dcd-b4ca-aaf022a93c5c" d="M663.35,453.82V423.29H685v6.26H671v5.25h10.95v6.31H671v6.44h14v6.27Z"/><path class="2913dfe8-faf2-4dcd-b4ca-aaf022a93c5c" d="M961.77,453.81V423.28h21.61v6.26h-14v5.25h10.93v6.31H969.39v6.44h14v6.27Z"/><path class="2913dfe8-faf2-4dcd-b4ca-aaf022a93c5c" d="M1022.16,453.8V423.27h21.61v6.27h-14v5.24h10.94v6.31h-10.94v6.44h14v6.27Z"/><path class="2913dfe8-faf2-4dcd-b4ca-aaf022a93c5c" d="M814.68,453.68v-5.95h-8.92l-2.84,5.95h-8.06l15.28-30.53h26.32v6.23H822.34v5.28h11.07v6.19H822.34v6.61h14.14v6.22Zm0-23.42h-.56L808.8,441.4h5.88Z"/></g></svg>
