<svg id="0fa16b70-3022-48b9-87a7-0f0faccabfa6" data-name="Layer 1" xmlns="http://www.w3.org/2000/svg" viewBox="0 0 900.24 229.17"><defs><style>.ca17bdf2-bfa9-4e71-8197-af6d5fcb227e{fill:#e5262a;}.\31 f3bcbef-684b-41d2-8d24-d8fbf5f4624a{fill:#fefcfc;}.\30 6b7153f-ab52-4ee6-be06-7408cb37c4d9{fill:#e41a20;}</style></defs><title>Untitled-1</title><path class="ca17bdf2-bfa9-4e71-8197-af6d5fcb227e" d="M1233.32,822.49q-222.71,0-445.4.08c-3.5,0-4.76-.39-4.75-4.44q.23-110.24,0-220.45c0-3.78,1-4.27,4.42-4.27q445.65.14,891.3,0c3.23,0,4.53.19,4.52,4.18q-.27,110.48,0,220.95c0,3.55-.87,4-4.16,4Q1456.28,822.44,1233.32,822.49Zm137.07-101c-.09.1-.27.21-.25.29a3.47,3.47,0,0,0,.25.65c.52,16.35.49,32.7,0,49.06-.61.1-1.36.18-1.37,1s.73.87,1.35,1c.17,2.23.78,3.59,3.62,3.39,4.46-.31,9-.06,13.45-.09a10.75,10.75,0,0,0,10.53-10.6q0-16.93,0-33.88c0-8.17-4.22-12.39-12.31-12.39-3.66,0-7.31,0-11,0C1373.08,719.88,1371.31,719.62,1370.39,721.52Zm-513.18-8c-1.85-3.63-.54-7.51-.94-11.25-.41-3.9,1-8-1-11.72-.08-9.48,0-19-.3-28.45-.1-3.26.88-4.22,4.16-4.17,14.14.21,28.29.15,42.45.18,8.89,0,12.83-4,12.83-12.94a93.62,93.62,0,0,1,.06-9.48c.41-4-1.15-5-5-5-23.31.17-46.61.08-69.92.1-6.5,0-11,3.9-12.08,10.36-1.34,1.52-1.19,3.38-1.19,5.2v54.27c0,1.82-.15,3.68,1.19,5.2.24,7.4,6.33,13,13.69,11.74,3.54-.59,7.26-.26,10.87,0,2.42.14,3.27-.88,3.3-3h1.88c-.08,2.81,1.67,3.06,3.91,3,7.34-.08,14.67.11,22-.1,3.15-.09,4.35.66,4.22,4.08-.27,7.32,0,14.66-.13,22-.07,2.83.78,3.77,3.64,3.7,6.49-.17,13-.19,19.49,0,3.31.12,4.21-1,4.17-4.24-.18-14.16,0-28.33-.09-42.5,0-5.1-4.93-10.11-10-10.13-14.33-.05-28.67.08-43-.14-3.53-.05-4.12,1.24-4.05,4.33C857.53,700.84,857.29,707.17,857.21,713.5Zm193.35,60c.23,2.21.94,3.38,3.68,3.34,14.66-.18,29.33-.06,44-.12,4.5,0,9.64-5.07,9.66-9.53.06-14.5-.06-29,.09-43.5,0-3.21-1.18-3.93-4.12-3.85-6.49.19-13,.21-19.49,0-3.18-.11-3.95,1.12-3.88,4.07.18,7-.13,14,.15,21,.14,3.6-.67,5-4.6,4.79-7-.35-14-.13-21-.08-1.58,0-3.41-.56-4.47,1.32-2.33.06-1.27,1.89-1.2,2.79C1049.92,760.33,1047.89,767.07,1050.56,773.52Zm290.1-78.29c.83,6.12.37,12.28.29,18.41,0,3.12,1,3.91,4,3.88,14.14-.15,28.28-.07,42.42-.09a10.7,10.7,0,0,0,10.59-10.6q0-31.7,0-63.38c0-8.5-4.17-12.68-12.58-12.68-3.16,0-6.35.26-9.48,0-4.09-.4-5.39,1-5.32,5.2.24,16.63,0,33.27.17,49.9,0,3.55-1.13,4.59-4.53,4.5-7.15-.19-14.32.11-21.46-.14-2.7-.09-3.94.74-4.22,3.29-.38.71-1.1,1.42-1.1,2.14-.08,8.09,0,16.19,0,24.29C1340.7,711.69,1339.56,703.42,1340.66,695.23ZM1051.45,658c8.32,0,16.65.21,25-.18,3.45-.16,4.28.44,4.24,4-.21,17.14,0,34.28-.15,51.43,0,3.19.71,4.39,4.13,4.24,6.48-.28,13-.27,19.47,0,3.24.13,3.84-1.08,3.83-4-.1-24.3,0-48.59,0-72.89,0-4.4-5.15-9.76-9.45-9.78-14.65-.07-29.29,0-43.94-.06-2.17,0-3.5.47-3.91,2.68-2.68,8.58-.76,17.36-1.11,26,0,.65.51,1.47,1.21.81C1051.19,659.8,1051.21,658.8,1051.45,658Zm587.17,46.52c-2.11-.46-3.3.66-4.54,1.35-12,6.66-23.92,13.4-35.88,20.11-2.68,1.5-5.07,2.12-8.24.27-8.62-5-17.55-9.52-26.35-14.25-4.6-2.47-9.18-5-14.4-7.81,14.24-7.85,27.61-15.3,41.08-22.57,2.48-1.34,3.7-2.77,3.67-5.74q-.21-20.25,0-40.49c0-3.46-.36-4.57-4-2.51-12.59,7.15-25.31,14.07-38,21a5,5,0,0,0-3,5.11q.12,44.7,0,89.39c0,4.53,1.34,4,4.4,2.27,11.88-6.73,23.91-13.19,35.8-19.9,3.37-1.9,4.85-2.08,4.75,2.62-.25,11.16-.13,22.32-.06,33.49,0,3.08-.49,6.23.44,9.59,14.7-7.25,28-16,42.11-23.57a3.77,3.77,0,0,0,2.3-3.52C1638.59,734.4,1638.62,719.44,1638.62,704.54Zm-520.74,2.08h0c0,21.83.07,43.65-.07,65.48,0,3.5.57,5.2,4.59,4.74,3.62-.41,7.32-.09,11-.08,7.23,0,11.71-4.4,11.71-11.55,0-34.15.08-68.31-.1-102.46,0-4,1.07-5,5-4.92,14.16.24,28.32.12,42.48.07,8.14,0,12-4,12-12,0-3.5-.27-7,.07-10.49.37-3.87-1.13-4.72-4.79-4.7-23.65.15-47.31.06-71,.08a10.86,10.86,0,0,0-10.92,10.87Q1117.86,674.14,1117.88,706.62Zm378.23-27.16,1.11.63v31.39c0,20.32.1,40.64-.08,61,0,3.53.9,4.67,4.42,4.37,3.81-.32,7.66,0,11.49-.06,6.91,0,11.32-4.46,11.32-11.33,0-39.48.05-78.95,0-118.42,0-5.25,2.33-12-1.06-15.33-3.12-3-9.84-.54-15-.93a8.61,8.61,0,0,0-7.39,3c-9.78,10-19.61,20-29.72,29.62a11.55,11.55,0,0,0-3.87,9.58c.24,9.49,0,19,.09,28.48,0,1.85-.65,3.88,1.14,6.41ZM1465,708.2V671.73c0-.67,0-1.34,0-2,.22-2.27-1.15-3.63-2.62-5.08-7.7-7.6-15.95-14.76-22.81-23.07-7.26-8.77-15.56-12.37-26.79-11-4,.48-4.86,1.44-4.84,5.21.14,31,.07,61.93.08,92.9,0,14.65.1,29.3-.07,43.95,0,3.28.89,4.39,4.19,4.17,4-.27,8,0,12-.07,6.55,0,11.06-4.53,11.06-11.11q0-40.46,0-80.91c0-1.65-.75-3.57,1.46-5.78Zm-153.75-4.74v60.93c0,8.21,4.12,12.37,12.25,12.37,2.83,0,5.66,0,8.49,0,7.08-.16,6.47,1.52,6.47-6.7q0-53.92-.09-107.87c0-3.58.54-4.68,4.52-4.37,7.12.54,14.31,0,21.47.22,3.06.08,4-1,3.94-4-.2-6.32-.27-12.66,0-19,.17-3.7-1.3-4.38-4.62-4.34-13.65.17-27.3.06-41,.07-6.73,0-11.48,4.65-11.49,11.26Q1311.19,672.75,1311.21,703.46Zm-96.74.57q0,30.22,0,60.43c0,8.28,4.07,12.3,12.42,12.3a87.38,87.38,0,0,1,10,.07c4.12.46,4.88-1.19,4.86-5-.13-35-.06-69.91,0-104.87,0-2.33,0-4.66-.06-7-.07-2,.56-2.34,2.64-2.26,7.64.29,15.3.09,23,.34,3.11.09,4.45-.61,4.29-4.07-.28-6.31-.3-12.65,0-19,.18-3.73-1.33-4.34-4.63-4.3-13.64.16-27.3,0-40.94.07-6.76,0-11.46,4.65-11.46,11.33Q1214.45,673.07,1214.47,704Zm86.81.05q0-30.5,0-61c0-8-4.34-12.31-12.46-12.32-3.16,0-6.37.32-9.48-.07-4.64-.57-5.4,1.42-5.38,5.62.17,36,0,72,.21,108,0,4.51-1.26,5.7-5.61,5.44-6.47-.39-13,.09-19.48-.18-3.54-.14-5.1.57-4.86,4.57.36,6.14.26,12.33,0,18.49-.12,3.16.64,4.29,4.07,4.24,14.16-.2,28.32-.07,42.48-.1a10.69,10.69,0,0,0,10.46-10.68Q1301.3,735.07,1301.28,704.08Zm-252.92-.2c0-22.83-.06-45.67.06-68.5,0-3.18-.37-4.88-4.21-4.69-6.49.31-13,.21-19.49,0-2.94-.08-3.61,1-3.61,3.78q.09,69.25,0,138.5c0,3.15,1.08,3.92,4,3.82,6.32-.21,12.67-.28,19,0,3.61.17,4.36-1,4.34-4.47C1048.29,749.54,1048.36,726.71,1048.36,703.88Zm-37.19-32.33h0c0-12-.19-24,.1-35.94.1-4.13-1.32-5.18-5.1-4.9s-7.66,0-11.48.06A10.73,10.73,0,0,0,984,641.29c0,14.81-.1,29.62.06,44.43,0,3.43-.91,4.73-4.5,4.6-7.15-.24-14.31.09-21.46-.12-3-.08-4.11.61-4,3.81.26,6.32.26,12.66,0,19-.14,3.41.75,4.58,4.35,4.53,14-.19,28,0,41.94,0a10.85,10.85,0,0,0,10.76-11Q1011.19,689,1011.17,671.55Zm-59.59,2.79h0c0-13.14-.08-26.28.06-39.42,0-3.22-.9-4.44-4.23-4.21-4,.27-8,0-12,.07a10.92,10.92,0,0,0-11,11.24q0,31.43,0,62.87c0,8.46,4.12,12.55,12.64,12.57,3.49,0,7-.24,10.47.07s4.14-1.16,4.11-4.27C951.5,700.29,951.58,687.31,951.58,674.34ZM871.4,749.62c-13,0-26,.09-39-.06-3.27,0-4.79.59-4.59,4.33.32,6.14.26,12.32,0,18.47-.13,3.46.88,4.51,4.45,4.48,23.81-.16,47.63-.07,71.44-.09a10.59,10.59,0,0,0,10.69-10.45c0-4.17-.22-8.34.07-12.49.24-3.31-.85-4.29-4.14-4.25C897.37,749.72,884.38,749.63,871.4,749.62Zm82.79-1.39c0,8.31.11,16.63-.07,24.94-.06,2.86.8,3.72,3.66,3.64,6.81-.2,13.64-.15,20.46,0,2.3.05,3.22-.51,3.21-3-.09-16.8-.13-33.6,0-50.4,0-3.12-1.39-3.53-3.92-3.49-6.48.09-13,.21-19.45,0-3.1-.11-4,.86-4,3.91C954.29,731.92,954.18,740.07,954.19,748.23Zm222-58v0c-8.33,0-16.66.11-25-.06-2.82-.06-3.81.75-3.73,3.64.17,6.49.19,13,0,19.48-.11,3.25.87,4.28,4.21,4.23,13.32-.19,26.65-.07,40-.1,9,0,12.85-3.84,12.86-12.8,0-3.5-.18-7,0-10.49.2-3-.69-4-3.88-4C1192.51,690.43,1184.34,690.27,1176.18,690.27ZM1310,641.09h-.36V767.68h.36Zm-37-6h-.32v20.57h.32Zm-30.33,136.48.45.2V755.15h-.45Z" transform="translate(-783.17 -593.41)"/><path class="1f3bcbef-684b-41d2-8d24-d8fbf5f4624a" d="M1638.62,704.54c0,14.9,0,29.86,0,44.82a3.77,3.77,0,0,1-2.3,3.52c-14.06,7.53-27.41,16.32-42.11,23.57-.93-3.36-.42-6.51-.44-9.59-.07-11.17-.19-22.33.06-33.49.1-4.7-1.38-4.52-4.75-2.62-11.89,6.71-23.92,13.17-35.8,19.9-3.06,1.73-4.42,2.26-4.4-2.27q.21-44.68,0-89.39a5,5,0,0,1,3-5.11c12.73-6.91,25.45-13.83,38-21,3.62-2.06,4-.95,4,2.51q-.18,20.25,0,40.49c0,3-1.19,4.4-3.67,5.74-13.47,7.27-26.84,14.72-41.08,22.57,5.22,2.83,9.8,5.34,14.4,7.81,8.8,4.73,17.73,9.23,26.35,14.25,3.17,1.85,5.56,1.23,8.24-.27,12-6.71,23.9-13.45,35.88-20.11C1635.32,705.2,1636.51,704.08,1638.62,704.54Z" transform="translate(-783.17 -593.41)"/><path class="1f3bcbef-684b-41d2-8d24-d8fbf5f4624a" d="M1117.88,706.62q0-32.49,0-65a10.86,10.86,0,0,1,10.92-10.87c23.66,0,47.32.07,71-.08,3.66,0,5.16.83,4.79,4.7-.34,3.46-.07,7-.07,10.49,0,8-3.89,12-12,12-14.16.05-28.32.17-42.48-.07-3.9-.06-5,.91-5,4.92.18,34.15.11,68.31.1,102.46,0,7.15-4.48,11.55-11.71,11.55-3.66,0-7.36-.33-11,.08-4,.46-4.61-1.24-4.59-4.74.14-21.83.07-43.65.07-65.48Z" transform="translate(-783.17 -593.41)"/><path class="1f3bcbef-684b-41d2-8d24-d8fbf5f4624a" d="M1496.11,679.46l-27.56,28.36c-1.79-2.53-1.13-4.56-1.14-6.41-.08-9.49.15-19-.09-28.48a11.55,11.55,0,0,1,3.87-9.58c10.11-9.66,19.94-19.62,29.72-29.62a8.61,8.61,0,0,1,7.39-3c5.12.39,11.84-2.11,15,.93,3.39,3.28,1,10.08,1.06,15.33.1,39.47,0,78.94,0,118.42,0,6.87-4.41,11.29-11.32,11.33-3.83,0-7.68-.26-11.49.06-3.52.3-4.45-.84-4.42-4.37.18-20.32.08-40.64.08-61V680.09Z" transform="translate(-783.17 -593.41)"/><path class="1f3bcbef-684b-41d2-8d24-d8fbf5f4624a" d="M1465,708.2l-28.3-29.26c-2.21,2.21-1.46,4.13-1.46,5.78q-.09,40.46,0,80.91c0,6.58-4.51,11.09-11.06,11.11-4,0-8-.2-12,.07-3.3.22-4.22-.89-4.19-4.17.17-14.65.07-29.3.07-43.95,0-31,.06-61.93-.08-92.9,0-3.77.88-4.73,4.84-5.21,11.23-1.37,19.53,2.23,26.79,11,6.86,8.31,15.11,15.47,22.81,23.07,1.47,1.45,2.84,2.81,2.62,5.08-.06.66,0,1.33,0,2Z" transform="translate(-783.17 -593.41)"/><path class="1f3bcbef-684b-41d2-8d24-d8fbf5f4624a" d="M1311.21,703.46q0-30.71,0-61.43c0-6.61,4.76-11.25,11.49-11.26,13.65,0,27.3.1,41-.07,3.32,0,4.79.64,4.62,4.34-.29,6.31-.22,12.65,0,19,.1,3-.88,4.1-3.94,4-7.16-.18-14.35.32-21.47-.22-4-.31-4.53.79-4.52,4.37q.21,53.94.09,107.87c0,8.22.61,6.54-6.47,6.7-2.83.06-5.66,0-8.49,0-8.13,0-12.25-4.16-12.25-12.37Z" transform="translate(-783.17 -593.41)"/><path class="1f3bcbef-684b-41d2-8d24-d8fbf5f4624a" d="M1214.47,704q0-31,0-61.92c0-6.68,4.7-11.33,11.46-11.33,13.64,0,27.3.09,40.94-.07,3.3,0,4.81.57,4.63,4.3-.29,6.31-.27,12.65,0,19,.16,3.46-1.18,4.16-4.29,4.07-7.65-.25-15.31,0-23-.34-2.08-.08-2.71.31-2.64,2.26.08,2.33.06,4.66.06,7,0,35-.09,69.91,0,104.87,0,3.82-.74,5.47-4.86,5a87.38,87.38,0,0,0-10-.07c-8.35,0-12.42-4-12.42-12.3Q1214.47,734.25,1214.47,704Z" transform="translate(-783.17 -593.41)"/><path class="1f3bcbef-684b-41d2-8d24-d8fbf5f4624a" d="M1301.28,704.08q0,31,0,62a10.69,10.69,0,0,1-10.46,10.68c-14.16,0-28.32-.1-42.48.1-3.43,0-4.19-1.08-4.07-4.24.22-6.16.32-12.35,0-18.49-.24-4,1.32-4.71,4.86-4.57,6.48.27,13-.21,19.48.18,4.35.26,5.64-.93,5.61-5.44-.2-36,0-72-.21-108,0-4.2.74-6.19,5.38-5.62,3.11.39,6.32.07,9.48.07,8.12,0,12.45,4.28,12.46,12.32Q1301.3,673.58,1301.28,704.08Z" transform="translate(-783.17 -593.41)"/><path class="1f3bcbef-684b-41d2-8d24-d8fbf5f4624a" d="M827.47,641.15c1.09-6.46,5.58-10.35,12.08-10.36,23.31,0,46.61.07,69.92-.1,3.88,0,5.44,1,5,5a93.62,93.62,0,0,0-.06,9.48c0,9-3.94,13-12.83,12.94-14.16,0-28.31,0-42.45-.18-3.28,0-4.26.91-4.16,4.17.27,9.48.22,19,.3,28.45l0,23.93c0,2.17-.88,3.19-3.3,3-3.61-.21-7.33-.54-10.87,0-7.36,1.24-13.45-4.34-13.69-11.74l-.07-.25c1-1.7.5-3.58.51-5.36q.06-26.73,0-53.44c0-1.78.52-3.66-.52-5.36Z" transform="translate(-783.17 -593.41)"/><path class="1f3bcbef-684b-41d2-8d24-d8fbf5f4624a" d="M1048.36,703.88c0,22.83-.07,45.66.09,68.49,0,3.45-.73,4.64-4.34,4.47-6.32-.3-12.67-.23-19,0-3,.1-4.06-.67-4-3.82q.15-69.25,0-138.5c0-2.76.67-3.86,3.61-3.78,6.49.18,13,.28,19.49,0,3.84-.19,4.22,1.51,4.21,4.69C1048.3,658.21,1048.36,681.05,1048.36,703.88Z" transform="translate(-783.17 -593.41)"/><path class="1f3bcbef-684b-41d2-8d24-d8fbf5f4624a" d="M1050.58,633.43c.41-2.21,1.74-2.69,3.91-2.68,14.65.1,29.29,0,43.94.06,4.3,0,9.44,5.38,9.45,9.78,0,24.3-.05,48.59,0,72.89,0,2.93-.59,4.14-3.83,4-6.48-.26-13-.27-19.47,0-3.42.15-4.15-1-4.13-4.24.14-17.15-.06-34.29.15-51.43,0-3.55-.79-4.15-4.24-4-8.31.39-16.64.16-25,.18-.92-1.7-.5-3.55-.54-5.34C1050.77,646.26,1050.69,639.85,1050.58,633.43Z" transform="translate(-783.17 -593.41)"/><path class="1f3bcbef-684b-41d2-8d24-d8fbf5f4624a" d="M1340.57,693.47c.28-2.55,1.52-3.38,4.22-3.29,7.14.25,14.31,0,21.46.14,3.4.09,4.56-1,4.53-4.5-.17-16.63.07-33.27-.17-49.9-.07-4.24,1.23-5.6,5.32-5.2,3.13.31,6.32,0,9.48,0,8.41,0,12.57,4.18,12.58,12.68q0,31.68,0,63.38a10.7,10.7,0,0,1-10.59,10.6c-14.14,0-28.28-.06-42.42.09-3,0-4-.76-4-3.88.08-6.13.54-12.29-.29-18.41Z" transform="translate(-783.17 -593.41)"/><path class="1f3bcbef-684b-41d2-8d24-d8fbf5f4624a" d="M1011.17,671.55q0,17.48,0,35a10.85,10.85,0,0,1-10.76,11c-14,0-28-.14-41.94,0-3.6,0-4.49-1.12-4.35-4.53.26-6.31.26-12.65,0-19-.13-3.2,1-3.89,4-3.81,7.15.21,14.31-.12,21.46.12,3.59.13,4.53-1.17,4.5-4.6-.16-14.81-.09-29.62-.06-44.43a10.73,10.73,0,0,1,10.67-10.52c3.82,0,7.67.22,11.48-.06s5.2.77,5.1,4.9c-.29,12-.1,24-.1,35.94Z" transform="translate(-783.17 -593.41)"/><path class="1f3bcbef-684b-41d2-8d24-d8fbf5f4624a" d="M1050.58,751c1.06-1.88,2.89-1.31,4.47-1.32,7,0,14-.27,21,.08,3.93.2,4.74-1.19,4.6-4.79-.28-7,0-14-.15-21-.07-2.95.7-4.18,3.88-4.07,6.49.21,13,.19,19.49,0,2.94-.08,4.15.64,4.12,3.85-.15,14.5,0,29-.09,43.5,0,4.46-5.16,9.51-9.66,9.53-14.66.06-29.33-.06-44,.12-2.74,0-3.45-1.13-3.68-3.34A154.43,154.43,0,0,0,1050.58,751Z" transform="translate(-783.17 -593.41)"/><path class="1f3bcbef-684b-41d2-8d24-d8fbf5f4624a" d="M857.21,713.5c.08-6.33.32-12.66.18-19-.07-3.09.52-4.38,4.05-4.33,14.32.22,28.66.09,43,.14,5.06,0,10,5,10,10.13,0,14.17-.09,28.34.09,42.5,0,3.28-.86,4.36-4.17,4.24-6.49-.23-13-.21-19.49,0-2.86.07-3.71-.87-3.64-3.7.18-7.33-.14-14.67.13-22,.13-3.42-1.07-4.17-4.22-4.08-7.33.21-14.66,0-22,.1-2.24,0-4-.22-3.91-3Z" transform="translate(-783.17 -593.41)"/><path class="1f3bcbef-684b-41d2-8d24-d8fbf5f4624a" d="M951.58,674.34c0,13-.08,25.95.06,38.92,0,3.11-.64,4.57-4.11,4.27s-7-.07-10.47-.07c-8.52,0-12.64-4.11-12.64-12.57q0-31.44,0-62.87a10.92,10.92,0,0,1,11-11.24c4,0,8,.2,12-.07,3.33-.23,4.27,1,4.23,4.21-.14,13.14-.06,26.28-.06,39.42Z" transform="translate(-783.17 -593.41)"/><path class="1f3bcbef-684b-41d2-8d24-d8fbf5f4624a" d="M871.4,749.62c13,0,26,.1,39-.06,3.29,0,4.38.94,4.14,4.25-.29,4.15,0,8.32-.07,12.49a10.59,10.59,0,0,1-10.69,10.45c-23.81,0-47.63-.07-71.44.09-3.57,0-4.58-1-4.45-4.48.25-6.15.31-12.33,0-18.47-.2-3.74,1.32-4.37,4.59-4.33C845.42,749.71,858.41,749.62,871.4,749.62Z" transform="translate(-783.17 -593.41)"/><path class="1f3bcbef-684b-41d2-8d24-d8fbf5f4624a" d="M1370.4,771.52c.48-16.36.51-32.71,0-49.06v-.94c.92-1.9,2.69-1.64,4.33-1.64,3.65,0,7.3,0,11,0,8.09,0,12.3,4.22,12.31,12.39q0,17,0,33.88a10.75,10.75,0,0,1-10.53,10.6c-4.49,0-9-.22-13.45.09-2.84.2-3.45-1.16-3.62-3.39C1370.39,772.81,1370.39,772.16,1370.4,771.52Z" transform="translate(-783.17 -593.41)"/><path class="1f3bcbef-684b-41d2-8d24-d8fbf5f4624a" d="M954.18,748.23c0-8.16.11-16.31-.06-24.46-.07-3,.87-4,4-3.91,6.48.23,13,.11,19.45,0,2.53,0,4,.37,3.92,3.49-.14,16.8-.1,33.6,0,50.4,0,2.5-.91,3.06-3.21,3-6.82-.12-13.65-.17-20.46,0-2.86.08-3.72-.78-3.66-3.64C954.3,764.86,954.19,756.54,954.18,748.23Z" transform="translate(-783.17 -593.41)"/><path class="1f3bcbef-684b-41d2-8d24-d8fbf5f4624a" d="M1176.18,690.27c8.16,0,16.33.16,24.48-.08,3.19-.09,4.08.95,3.88,4-.23,3.48,0,7,0,10.49,0,9-3.82,12.79-12.86,12.8-13.33,0-26.66-.09-40,.1-3.34.05-4.32-1-4.21-4.23.21-6.49.19-13,0-19.48-.08-2.89.91-3.7,3.73-3.64,8.33.17,16.66.06,25,.06Z" transform="translate(-783.17 -593.41)"/><ellipse class="06b7153f-ab52-4ee6-be06-7408cb37c4d9" cx="526.64" cy="110.98" rx="0.25" ry="89.51"/><path class="06b7153f-ab52-4ee6-be06-7408cb37c4d9" d="M827.47,705.82c-1.34-1.52-1.19-3.38-1.19-5.2V646.35c0-1.82-.15-3.68,1.19-5.2l-.08.26q0,32.08,0,64.16Z" transform="translate(-783.17 -593.41)"/><path class="06b7153f-ab52-4ee6-be06-7408cb37c4d9" d="M1050.58,633.43c.11,6.42.19,12.83.33,19.25,0,1.79-.38,3.64.54,5.34-.24.78-.26,1.78-.77,2.26-.7.66-1.23-.16-1.21-.81C1049.82,650.79,1047.9,642,1050.58,633.43Z" transform="translate(-783.17 -593.41)"/><path class="06b7153f-ab52-4ee6-be06-7408cb37c4d9" d="M1340.57,693.47l.09,1.76c-1.1,8.19,0,16.46-1.24,24.67,0-8.1,0-16.2,0-24.29C1339.47,694.89,1340.19,694.18,1340.57,693.47Z" transform="translate(-783.17 -593.41)"/><path class="06b7153f-ab52-4ee6-be06-7408cb37c4d9" d="M857.21,713.5v1h-1.88l0-23.93c1.94,3.77.56,7.82,1,11.72C856.67,706,855.36,709.87,857.21,713.5Z" transform="translate(-783.17 -593.41)"/><path class="06b7153f-ab52-4ee6-be06-7408cb37c4d9" d="M1273,635.1v20.57h-.32V635.11Z" transform="translate(-783.17 -593.41)"/><path class="06b7153f-ab52-4ee6-be06-7408cb37c4d9" d="M1050.58,751a154.43,154.43,0,0,1,0,22.56c-2.67-6.45-.64-13.19-1.18-19.77C1049.31,752.85,1048.25,751,1050.58,751Z" transform="translate(-783.17 -593.41)"/><path class="06b7153f-ab52-4ee6-be06-7408cb37c4d9" d="M1242.63,771.58V755.14h.45v16.63Z" transform="translate(-783.17 -593.41)"/><path class="06b7153f-ab52-4ee6-be06-7408cb37c4d9" d="M1370.4,771.52c0,.64,0,1.29,0,1.93-.62-.11-1.37-.19-1.35-1S1369.79,771.62,1370.4,771.52Z" transform="translate(-783.17 -593.41)"/><path class="06b7153f-ab52-4ee6-be06-7408cb37c4d9" d="M1370.39,721.52v.94a3.47,3.47,0,0,1-.25-.65C1370.12,721.73,1370.3,721.62,1370.39,721.52Z" transform="translate(-783.17 -593.41)"/><path class="ca17bdf2-bfa9-4e71-8197-af6d5fcb227e" d="M827.4,705.57q0-32.09,0-64.16c1,1.7.51,3.58.52,5.36q.06,26.72,0,53.44C827.9,702,828.42,703.87,827.4,705.57Z" transform="translate(-783.17 -593.41)"/></svg>
