<?xml version="1.0" encoding="utf-8"?>
<!-- Generator: Adobe Illustrator 22.1.0, SVG Export Plug-In . SVG Version: 6.00 Build 0)  -->
<svg version="1.1" id="Layer_1" xmlns="http://www.w3.org/2000/svg" xmlns:xlink="http://www.w3.org/1999/xlink" x="0px" y="0px"
	 viewBox="0 0 56.7 56.7" style="enable-background:new 0 0 56.7 56.7;" xml:space="preserve">
<style type="text/css">
	.st0{fill:#231F20;}
</style>
<path class="st0" d="M1.2,29.7H0V27h1.2c0.9,0,1.4,0.4,1.4,1.3C2.6,29.2,2.1,29.7,1.2,29.7 M1,27.6H0.8v1.5H1c0.6,0,0.7-0.3,0.7-0.8
	C1.8,27.8,1.5,27.6,1,27.6z"/>
<path class="st0" d="M4.7,29.7L4.5,29H3.7l-0.2,0.6H2.6l1-2.7h1l1,2.7H4.7 M4.1,27.7L4.1,27.7l-0.3,0.9h0.6L4.1,27.7z"/>
<path class="st0" d="M7.7,29.7l-0.9-1.4c0-0.1-0.1-0.2-0.1-0.2l0,0c0,0,0,0.1,0,0.3v1.3H5.9V27h0.8l0.9,1.4c0.1,0.1,0.1,0.2,0.1,0.2
	l0,0c0,0,0-0.1,0-0.3V27h0.7v2.7H7.7"/>
<rect x="9.1" y="27" class="st0" width="0.8" height="2.7"/>
<path class="st0" d="M11.5,29.7c-0.6,0-1-0.2-1.2-0.7l0.7-0.2c0.1,0.2,0.3,0.3,0.5,0.3c0.3,0,0.4-0.1,0.4-0.3c0-0.5-1.6,0.1-1.6-1.1
	c0-0.5,0.5-0.8,1.1-0.8c0.6,0,1,0.2,1.1,0.5L12,27.7c-0.1-0.2-0.3-0.2-0.5-0.2c-0.2,0-0.3,0.1-0.3,0.2c0,0.4,1.6-0.2,1.6,1.1
	C12.8,29.3,12.3,29.7,11.5,29.7"/>
<polyline class="st0" points="14.9,29.7 14.9,28.7 14,28.7 14,29.7 13.2,29.7 13.2,27 14,27 14,28 14.9,28 14.9,27 15.7,27
	15.7,29.7 14.9,29.7 "/>
<path class="st0" d="M19.3,29.7L19.1,29h-0.8l-0.2,0.6h-0.9l1-2.7h1l1,2.7H19.3 M18.7,27.7L18.7,27.7l-0.3,0.9H19L18.7,27.7z"/>
<path class="st0" d="M22.1,29.7l-0.6-1h-0.2v1h-0.8V27h1.4c0.6,0,0.9,0.3,0.9,0.8c0,0.4-0.2,0.6-0.5,0.7l0.8,1.1H22.1 M21.7,27.6
	h-0.3v0.6h0.3c0.2,0,0.3-0.1,0.3-0.3C22,27.6,21.9,27.6,21.7,27.6z"/>
<polyline class="st0" points="25.3,27.6 24.6,27.6 24.6,29.7 23.8,29.7 23.8,27.6 23,27.6 23,27 25.4,27 25.3,27.6 "/>
<path class="st0" d="M26.6,29.7c-0.6,0-1-0.2-1.2-0.7l0.7-0.2c0.1,0.2,0.3,0.3,0.5,0.3c0.3,0,0.4-0.1,0.4-0.3c0-0.5-1.6,0.1-1.6-1.1
	c0-0.5,0.5-0.8,1.1-0.8c0.6,0,1,0.2,1.1,0.5l-0.6,0.3c-0.1-0.2-0.3-0.2-0.5-0.2c-0.2,0-0.3,0.1-0.3,0.2c0,0.4,1.6-0.2,1.6,1.1
	C27.8,29.3,27.4,29.7,26.6,29.7"/>
<polyline class="st0" points="30.3,27.6 30.3,28.1 31.4,28.1 31.2,28.7 30.3,28.7 30.3,29.7 29.5,29.7 29.5,27 31.6,27 31.6,27.6
	30.3,27.6 "/>
<path class="st0" d="M33.3,29.7c-0.8,0-1.5-0.5-1.5-1.4c0-0.9,0.7-1.4,1.5-1.4c0.8,0,1.5,0.5,1.5,1.4C34.7,29.2,34.1,29.7,33.3,29.7
	 M33.3,27.6c-0.4,0-0.7,0.3-0.7,0.8c0,0.5,0.3,0.8,0.7,0.8c0.4,0,0.6-0.3,0.6-0.8C33.9,27.8,33.6,27.6,33.3,27.6z"/>
<path class="st0" d="M36.4,29.7c-0.6,0-1.3-0.3-1.3-1V27H36v1.7c0,0.3,0.2,0.4,0.4,0.4c0.3,0,0.4-0.2,0.4-0.4V27h0.8v1.7
	C37.7,29.5,37.1,29.7,36.4,29.7"/>
<path class="st0" d="M40,29.7l-0.9-1.4c0-0.1-0.1-0.2-0.1-0.2l0,0c0,0,0,0.1,0,0.3v1.3h-0.7V27h0.8l0.9,1.4c0.1,0.1,0.1,0.2,0.1,0.2
	l0,0c0,0,0-0.1,0-0.3V27h0.7v2.7H40"/>
<path class="st0" d="M42.6,29.7h-1.2V27h1.2c0.9,0,1.4,0.4,1.4,1.3C44,29.2,43.6,29.7,42.6,29.7 M42.5,27.6h-0.2v1.5h0.2
	c0.6,0,0.7-0.3,0.7-0.8C43.2,27.8,43,27.6,42.5,27.6z"/>
<path class="st0" d="M46.2,29.7L46,29h-0.8L45,29.7h-0.9l1-2.7h1l1,2.7H46.2 M45.6,27.7L45.6,27.7l-0.3,0.9h0.6L45.6,27.7z"/>
<polyline class="st0" points="49.1,27.6 48.4,27.6 48.4,29.7 47.6,29.7 47.6,27.6 46.8,27.6 46.8,27 49.2,27 49.1,27.6 "/>
<rect x="49.6" y="27" class="st0" width="0.8" height="2.7"/>
<path class="st0" d="M52.3,29.7c-0.8,0-1.5-0.5-1.5-1.4c0-0.9,0.7-1.4,1.5-1.4c0.8,0,1.5,0.5,1.5,1.4C53.8,29.2,53.1,29.7,52.3,29.7
	 M52.3,27.6c-0.4,0-0.7,0.3-0.7,0.8c0,0.5,0.3,0.8,0.7,0.8c0.4,0,0.6-0.3,0.6-0.8C52.9,27.8,52.6,27.6,52.3,27.6z"/>
<path class="st0" d="M55.9,29.7L55,28.3c0-0.1-0.1-0.2-0.1-0.2l0,0c0,0,0,0.1,0,0.3v1.3h-0.7V27H55l0.9,1.4c0.1,0.1,0.1,0.2,0.1,0.2
	l0,0c0,0,0-0.1,0-0.3V27h0.7v2.7H55.9"/>
</svg>
