<svg xmlns="http://www.w3.org/2000/svg" viewBox="0 0 1188.12 711.07"><defs><style>.\37 c6a17cd-9c16-4d6d-9c67-428db3008df8{fill:#e5262a;}.b4f1186d-7dcc-4af3-ac8f-a448cc3568d3{fill:#fefcfc;}.\30 77a3a50-2e30-438e-8bf7-7d36039397cd{fill:#e41a20;}</style></defs><title>collab</title><g id="ad6c45d1-bb60-4604-97c1-b3d773da7408" data-name="Layer 1"><path class="7c6a17cd-9c16-4d6d-9c67-428db3008df8" d="M594.09,470q-222.71,0-445.4.08c-3.5,0-4.76-.38-4.75-4.44q.24-110.22,0-220.45c0-3.77,1-4.27,4.42-4.27q445.65.13,891.31,0c3.23,0,4.52.19,4.51,4.18q-.26,110.48,0,221c0,3.55-.88,4-4.17,4Q817,470,594.09,470Zm137.07-101c-.09.09-.27.21-.25.29a2.69,2.69,0,0,0,.26.64c.52,16.36.49,32.71,0,49.06-.62.11-1.37.18-1.38,1s.74.87,1.35,1c.18,2.23.79,3.59,3.62,3.39,4.47-.32,9-.07,13.45-.09a10.77,10.77,0,0,0,10.54-10.6q0-16.93,0-33.88c0-8.18-4.21-12.4-12.31-12.39-3.65,0-7.31,0-11,0C733.85,367.43,732.09,367.16,731.16,369.07ZM218,361c-1.84-3.62-.54-7.5-.94-11.24-.41-3.9,1-7.95-1-11.73-.07-9.48,0-19-.3-28.44-.09-3.27.88-4.22,4.16-4.17,14.15.2,28.3.15,42.45.17,8.89,0,12.83-4,12.83-12.93a93.62,93.62,0,0,1,.06-9.48c.41-4-1.15-5-5-5-23.3.18-46.61.09-69.92.11-6.49,0-11,3.89-12.08,10.36-1.34,1.52-1.18,3.38-1.18,5.2q0,27.14,0,54.26c0,1.82-.16,3.69,1.19,5.2.24,7.4,6.32,13,13.69,11.75,3.53-.6,7.25-.27,10.87-.06,2.41.14,3.27-.87,3.29-3.05H218c-.08,2.81,1.68,3.05,3.92,3,7.33-.08,14.67.11,22-.1,3.16-.09,4.35.65,4.23,4.07-.28,7.32,0,14.67-.14,22-.07,2.83.78,3.78,3.64,3.7,6.49-.16,13-.19,19.49.05,3.31.12,4.22-1,4.17-4.25-.17-14.16,0-28.33-.08-42.49,0-5.11-4.94-10.12-10-10.13-14.33-.06-28.66.08-43-.14-3.52-.06-4.12,1.23-4.05,4.32C218.3,348.39,218.06,354.72,218,361Zm193.35,60c.23,2.21.94,3.38,3.68,3.35,14.67-.18,29.33-.06,44-.12,4.49,0,9.63-5.07,9.65-9.54.07-14.5-.06-29,.09-43.49,0-3.21-1.17-3.93-4.11-3.85-6.5.19-13,.21-19.5,0-3.18-.1-3.95,1.12-3.87,4.08.18,7-.14,14,.14,21,.14,3.6-.66,5-4.6,4.8-7-.35-14-.13-21-.09-1.58,0-3.41-.55-4.46,1.33-2.34.06-1.28,1.89-1.21,2.78C410.69,407.88,408.67,414.62,411.33,421.06Zm290.1-78.29c.84,6.13.37,12.28.29,18.41,0,3.13,1,3.92,4,3.89,14.14-.15,28.28-.07,42.42-.1a10.7,10.7,0,0,0,10.59-10.6q0-31.68,0-63.38c0-8.49-4.17-12.67-12.58-12.67-3.16,0-6.34.25-9.47-.06-4.09-.4-5.39,1-5.33,5.2.24,16.63,0,33.27.17,49.91,0,3.54-1.12,4.59-4.53,4.5-7.15-.2-14.31.1-21.46-.14-2.7-.1-3.94.74-4.22,3.29-.38.71-1.09,1.42-1.1,2.13-.08,8.1,0,16.2,0,24.29C701.47,359.24,700.33,351,701.43,342.77Zm-289.2-37.2c8.32,0,16.65.21,24.95-.18,3.45-.17,4.29.44,4.24,4-.21,17.13,0,34.28-.14,51.42,0,3.19.71,4.4,4.12,4.25,6.48-.28,13-.27,19.47,0,3.24.13,3.84-1.09,3.83-4-.09-24.3,0-48.6-.05-72.9,0-4.4-5.15-9.75-9.45-9.77-14.64-.07-29.29,0-43.94-.06-2.17,0-3.5.46-3.9,2.67-2.69,8.58-.76,17.37-1.11,26,0,.64.5,1.46,1.2.81C412,307.35,412,306.34,412.23,305.57Zm587.16,46.51c-2.11-.46-3.3.67-4.53,1.36-12,6.65-23.93,13.39-35.88,20.1-2.69,1.51-5.08,2.13-8.25.28-8.62-5-17.55-9.53-26.34-14.25-4.61-2.47-9.19-5-14.4-7.82,14.23-7.84,27.6-15.29,41.07-22.56,2.48-1.34,3.71-2.77,3.67-5.75q-.19-20.24,0-40.49c0-3.45-.37-4.56-4-2.51-12.6,7.16-25.32,14.08-38,21a5,5,0,0,0-3,5.1q.12,44.7-.05,89.4c0,4.53,1.34,4,4.41,2.26C926,391.47,938,385,949.88,378.3c3.37-1.9,4.85-2.09,4.75,2.61-.25,11.16-.13,22.33-.06,33.49,0,3.09-.48,6.24.45,9.6,14.69-7.25,28-16.05,42.1-23.58a3.77,3.77,0,0,0,2.31-3.52C999.37,381.94,999.39,367,999.39,352.08Zm-520.74,2.09h0c0,21.82.06,43.65-.07,65.47,0,3.5.56,5.21,4.58,4.75,3.62-.41,7.32-.09,11-.09,7.22,0,11.7-4.4,11.7-11.54,0-34.16.08-68.31-.1-102.46,0-4,1.07-5,5-4.92,14.16.23,28.32.11,42.48.06,8.15,0,12-4,12-12,0-3.5-.26-7,.07-10.49.38-3.87-1.13-4.72-4.78-4.69-23.66.15-47.32.06-71,.08a10.86,10.86,0,0,0-10.92,10.86Q478.64,321.68,478.65,354.17ZM856.88,327l1.12.63q0,15.69,0,31.39c0,20.32.09,40.64-.09,61,0,3.54.9,4.67,4.43,4.38,3.8-.32,7.65,0,11.48-.06,6.91-.05,11.32-4.47,11.32-11.34q0-59.2,0-118.41c0-5.25,2.33-12.05-1.05-15.34-3.13-3-9.85-.53-15-.92a8.62,8.62,0,0,0-7.4,3c-9.77,10-19.6,20-29.72,29.63a11.52,11.52,0,0,0-3.87,9.58c.24,9.48,0,19,.09,28.47,0,1.85-.65,3.88,1.14,6.42Zm-31.15,28.73V319.27c0-.66-.05-1.33,0-2,.22-2.27-1.15-3.63-2.62-5.09-7.7-7.6-16-14.76-22.81-23.06-7.25-8.78-15.56-12.38-26.79-11-4,.49-4.86,1.45-4.84,5.22.14,31,.08,61.93.08,92.89,0,14.65.1,29.3-.06,43.95,0,3.28.89,4.39,4.18,4.17,4-.27,8-.05,12-.06,6.56,0,11.06-4.54,11.07-11.11q0-40.46,0-80.91c0-1.66-.75-3.58,1.47-5.78C806.65,336,815.73,345.39,825.73,355.74ZM672,351v60.92c0,8.22,4.13,12.38,12.26,12.37,2.83,0,5.66.05,8.49,0,7.07-.15,6.46,1.53,6.46-6.69q0-53.94-.08-107.87c0-3.58.54-4.68,4.52-4.38,7.11.55,14.3,0,21.46.23,3.06.07,4-1,3.94-4-.2-6.32-.27-12.66,0-19,.17-3.7-1.3-4.38-4.62-4.34-13.65.16-27.3.06-40.95.07-6.73,0-11.48,4.64-11.49,11.26Q672,320.29,672,351Zm-96.73.57V412c0,8.27,4.08,12.3,12.43,12.29a92.22,92.22,0,0,1,10,.07c4.11.46,4.87-1.19,4.85-5-.13-35,0-69.92,0-104.87,0-2.33,0-4.67-.06-7-.07-2,.57-2.35,2.64-2.27,7.64.3,15.31.1,23,.34,3.11.1,4.44-.6,4.28-4.06-.28-6.31-.29-12.66,0-19,.17-3.72-1.34-4.34-4.63-4.3-13.65.16-27.3.06-40.95.07-6.75,0-11.46,4.65-11.46,11.34Q575.24,320.62,575.25,351.58Zm86.8,0q0-30.5,0-61c0-8-4.33-12.31-12.45-12.32-3.17,0-6.37.32-9.49-.07-4.64-.58-5.39,1.41-5.37,5.61.16,36,0,72,.2,108,0,4.51-1.26,5.69-5.61,5.43-6.47-.38-13,.09-19.48-.17-3.54-.14-5.1.57-4.86,4.56.37,6.15.27,12.33,0,18.49-.12,3.16.64,4.3,4.07,4.25,14.16-.21,28.32-.07,42.49-.1a10.7,10.7,0,0,0,10.46-10.69Q662.07,382.61,662.05,351.62Zm-252.92-.2c0-22.83-.05-45.66.06-68.49,0-3.19-.37-4.88-4.21-4.7-6.48.31-13,.21-19.49,0-2.93-.08-3.61,1-3.61,3.79q.11,69.24,0,138.49c0,3.15,1.09,3.92,4.05,3.82,6.33-.2,12.67-.28,19,0,3.61.17,4.36-1,4.34-4.47C409.06,397.09,409.14,374.26,409.13,351.42ZM371.94,319.1h0c0-12-.19-24,.1-36,.1-4.12-1.32-5.17-5.1-4.89s-7.65,0-11.48.06a10.72,10.72,0,0,0-10.67,10.51c0,14.81-.09,29.63.06,44.44,0,3.43-.91,4.72-4.5,4.6-7.14-.24-14.31.08-21.46-.12-3-.09-4.1.6-4,3.81.25,6.31.25,12.65,0,19-.14,3.41.76,4.58,4.36,4.53,14-.19,28,0,41.93,0a10.85,10.85,0,0,0,10.76-11Q372,336.57,371.94,319.1Zm-59.59,2.79h0c0-13.14-.09-26.28.06-39.42,0-3.22-.91-4.45-4.24-4.22-4,.28-8,.06-12,.08a10.91,10.91,0,0,0-11,11.23q0,31.44,0,62.87c0,8.47,4.12,12.56,12.65,12.57,3.49,0,7-.23,10.47.07s4.14-1.15,4.1-4.27C312.27,347.83,312.35,334.86,312.35,321.89Zm-80.18,75.28c-13,0-26,.08-39-.07-3.28,0-4.8.59-4.6,4.33.32,6.15.26,12.33,0,18.48-.14,3.45.87,4.5,4.45,4.48,23.81-.17,47.62-.07,71.43-.09a10.6,10.6,0,0,0,10.69-10.46c0-4.16-.22-8.34.07-12.48.24-3.32-.84-4.3-4.14-4.25C258.14,397.27,245.16,397.17,232.17,397.17Zm82.79-1.4c0,8.32.11,16.64-.06,25-.06,2.86.8,3.72,3.65,3.63,6.82-.2,13.64-.15,20.46,0,2.3,0,3.23-.52,3.21-3-.09-16.8-.12-33.6,0-50.4,0-3.13-1.39-3.54-3.91-3.5-6.49.1-13,.21-19.46,0-3.09-.11-4,.85-4,3.91C315.07,379.47,315,387.62,315,395.77Zm222-58v0c-8.33,0-16.66.11-25-.06-2.83-.05-3.82.76-3.74,3.64.17,6.49.2,13,0,19.49-.1,3.24.87,4.27,4.21,4.22,13.33-.19,26.66-.07,40-.09,9,0,12.86-3.84,12.86-12.81,0-3.49-.17-7,0-10.49.2-3-.69-4.05-3.87-4C553.28,338,545.11,337.81,537,337.81Zm133.8-49.18h-.35V415.23h.35Zm-37-6h-.33v20.58h.33ZM603.4,419.12l.45.2V402.69h-.45Z"/><path class="b4f1186d-7dcc-4af3-ac8f-a448cc3568d3" d="M999.39,352.08c0,14.9,0,29.86,0,44.82a3.77,3.77,0,0,1-2.31,3.52C983.06,408,969.71,416.75,955,424c-.93-3.36-.43-6.51-.45-9.6-.07-11.16-.19-22.33.06-33.49.1-4.7-1.38-4.51-4.75-2.61C938,385,926,391.47,914.09,398.19c-3.07,1.74-4.43,2.27-4.41-2.26q.23-44.7.05-89.4a5,5,0,0,1,3-5.1c12.73-6.91,25.45-13.83,38-21,3.61-2.05,4-.94,4,2.51q-.19,20.25,0,40.49c0,3-1.19,4.41-3.67,5.75-13.47,7.27-26.84,14.72-41.07,22.56,5.21,2.83,9.79,5.35,14.4,7.82,8.79,4.72,17.72,9.22,26.34,14.25,3.17,1.85,5.56,1.23,8.25-.28,11.95-6.71,23.89-13.45,35.88-20.1C996.09,352.75,997.28,351.62,999.39,352.08Z"/><path class="b4f1186d-7dcc-4af3-ac8f-a448cc3568d3" d="M478.65,354.17q0-32.49,0-65a10.86,10.86,0,0,1,10.92-10.86c23.66,0,47.32.07,71-.08,3.65,0,5.16.82,4.78,4.69-.33,3.47-.07,7-.07,10.49,0,8.05-3.88,12-12,12-14.16.05-28.32.17-42.48-.06-3.9-.07-5,.91-5,4.92.18,34.15.11,68.3.1,102.46,0,7.14-4.48,11.55-11.7,11.54-3.67,0-7.37-.32-11,.09-4,.46-4.6-1.25-4.58-4.75.13-21.82.07-43.65.07-65.47Z"/><path class="b4f1186d-7dcc-4af3-ac8f-a448cc3568d3" d="M856.88,327l-27.56,28.36c-1.79-2.54-1.12-4.57-1.14-6.42-.07-9.49.15-19-.09-28.47A11.52,11.52,0,0,1,832,310.9c10.12-9.66,19.95-19.62,29.72-29.63a8.62,8.62,0,0,1,7.4-3c5.11.39,11.83-2.11,15,.92,3.38,3.29,1,10.09,1.05,15.34q.15,59.2,0,118.41c0,6.87-4.41,11.29-11.32,11.34-3.83,0-7.68-.26-11.48.06-3.53.29-4.46-.84-4.43-4.38.18-20.31.09-40.63.09-61q0-15.7,0-31.39Z"/><path class="b4f1186d-7dcc-4af3-ac8f-a448cc3568d3" d="M825.73,355.74c-10-10.35-19.08-19.73-28.29-29.25-2.22,2.2-1.47,4.12-1.47,5.78q-.09,40.46,0,80.91c0,6.57-4.51,11.08-11.07,11.11-4,0-8-.21-12,.06-3.29.22-4.22-.89-4.18-4.17.16-14.65.06-29.3.06-43.95,0-31,.06-61.93-.08-92.89,0-3.77.88-4.73,4.84-5.22,11.23-1.37,19.54,2.23,26.79,11,6.86,8.3,15.11,15.46,22.81,23.06,1.47,1.46,2.84,2.82,2.62,5.09-.06.66,0,1.33,0,2Z"/><path class="b4f1186d-7dcc-4af3-ac8f-a448cc3568d3" d="M672,351q0-30.72,0-61.43c0-6.62,4.76-11.25,11.49-11.26,13.65,0,27.3.09,40.95-.07,3.32,0,4.79.64,4.62,4.34-.29,6.31-.22,12.65,0,19,.1,3-.88,4.09-3.94,4-7.16-.18-14.35.32-21.46-.23-4-.3-4.54.8-4.52,4.38q.2,53.94.08,107.87c0,8.22.61,6.54-6.46,6.69-2.83.06-5.66,0-8.49,0-8.13,0-12.26-4.15-12.26-12.37Q672,381.47,672,351Z"/><path class="b4f1186d-7dcc-4af3-ac8f-a448cc3568d3" d="M575.25,351.58q0-31,0-61.92c0-6.69,4.71-11.33,11.46-11.34,13.65,0,27.3.09,40.95-.07,3.29,0,4.8.58,4.63,4.3-.29,6.31-.28,12.66,0,19,.16,3.46-1.17,4.16-4.28,4.06-7.65-.24-15.32,0-23-.34-2.07-.08-2.71.31-2.64,2.27.09,2.32.06,4.66.06,7,0,34.95-.09,69.91,0,104.87,0,3.81-.74,5.46-4.85,5a92.22,92.22,0,0,0-10-.07c-8.35,0-12.43-4-12.43-12.29Z"/><path class="b4f1186d-7dcc-4af3-ac8f-a448cc3568d3" d="M662.05,351.62q0,31,0,62a10.7,10.7,0,0,1-10.46,10.69c-14.17,0-28.33-.11-42.49.1-3.43.05-4.19-1.09-4.07-4.25.23-6.16.33-12.34,0-18.49-.24-4,1.32-4.7,4.86-4.56,6.49.26,13-.21,19.48.17,4.35.26,5.64-.92,5.61-5.43-.19-36,0-72-.2-108,0-4.2.73-6.19,5.37-5.61,3.12.39,6.32.06,9.49.07,8.12,0,12.44,4.28,12.45,12.32Q662.07,321.14,662.05,351.62Z"/><path class="b4f1186d-7dcc-4af3-ac8f-a448cc3568d3" d="M188.24,288.7c1.09-6.47,5.59-10.36,12.08-10.36,23.31,0,46.62.07,69.92-.11,3.88,0,5.44,1,5,5a93.62,93.62,0,0,0-.06,9.48c0,9-3.94,12.95-12.83,12.93-14.15,0-28.3,0-42.45-.17-3.28,0-4.25.9-4.16,4.17.27,9.48.23,19,.3,28.44l0,23.93c0,2.18-.88,3.19-3.29,3.05-3.62-.21-7.34-.54-10.87.06-7.37,1.23-13.45-4.35-13.69-11.75l-.08-.25c1-1.7.51-3.57.51-5.36q.06-26.72,0-53.43c0-1.79.52-3.66-.51-5.36Z"/><path class="b4f1186d-7dcc-4af3-ac8f-a448cc3568d3" d="M409.13,351.42c0,22.84-.07,45.67.09,68.5,0,3.44-.73,4.64-4.34,4.47-6.32-.31-12.66-.23-19,0-3,.1-4.06-.67-4.05-3.82q.15-69.24,0-138.49c0-2.77.68-3.87,3.61-3.79,6.49.18,13,.28,19.49,0,3.84-.18,4.22,1.51,4.21,4.7C409.08,305.76,409.13,328.59,409.13,351.42Z"/><path class="b4f1186d-7dcc-4af3-ac8f-a448cc3568d3" d="M411.36,281c.4-2.21,1.73-2.69,3.9-2.67,14.65.09,29.3,0,43.94.06,4.3,0,9.44,5.37,9.45,9.77,0,24.3,0,48.6.05,72.9,0,2.92-.59,4.14-3.83,4-6.48-.26-13-.27-19.47,0-3.41.15-4.15-1.06-4.12-4.25.13-17.14-.07-34.29.14-51.42.05-3.55-.79-4.16-4.24-4-8.3.39-16.63.16-24.95.18-.92-1.71-.51-3.56-.55-5.35C411.55,293.81,411.46,287.39,411.36,281Z"/><path class="b4f1186d-7dcc-4af3-ac8f-a448cc3568d3" d="M701.34,341c.28-2.55,1.52-3.39,4.22-3.29,7.15.24,14.31-.06,21.46.14,3.41.09,4.57-1,4.53-4.5-.17-16.64.07-33.28-.17-49.91-.06-4.23,1.24-5.6,5.33-5.2,3.13.31,6.31.06,9.47.06,8.41,0,12.58,4.18,12.58,12.67q0,31.69,0,63.38A10.7,10.7,0,0,1,748.14,365c-14.14,0-28.28-.05-42.42.1-3,0-4-.76-4-3.89.08-6.13.55-12.28-.29-18.41Z"/><path class="b4f1186d-7dcc-4af3-ac8f-a448cc3568d3" d="M371.94,319.1q0,17.47,0,34.95a10.85,10.85,0,0,1-10.76,11c-14,0-28-.15-41.93,0-3.6.05-4.5-1.12-4.36-4.53.26-6.31.26-12.65,0-19-.13-3.21,1-3.9,4-3.81,7.15.2,14.32-.12,21.46.12,3.59.12,4.54-1.17,4.5-4.6-.15-14.81-.08-29.63-.06-44.44a10.72,10.72,0,0,1,10.67-10.51c3.83,0,7.67.22,11.48-.06s5.2.77,5.1,4.89c-.29,12-.1,24-.1,36Z"/><path class="b4f1186d-7dcc-4af3-ac8f-a448cc3568d3" d="M411.36,398.51c1.05-1.88,2.88-1.32,4.46-1.33,7,0,14-.26,21,.09,3.94.2,4.74-1.2,4.6-4.8-.28-7,0-14-.14-21-.08-3,.69-4.18,3.87-4.08,6.5.22,13,.2,19.5,0,2.94-.08,4.14.64,4.11,3.85-.15,14.5,0,29-.09,43.49,0,4.47-5.16,9.52-9.65,9.54-14.67.06-29.33-.06-44,.12-2.74,0-3.45-1.14-3.68-3.34A154.44,154.44,0,0,0,411.36,398.51Z"/><path class="b4f1186d-7dcc-4af3-ac8f-a448cc3568d3" d="M218,361c.08-6.32.32-12.65.18-19-.07-3.09.53-4.38,4.05-4.32,14.33.22,28.66.08,43,.14,5.06,0,10,5,10,10.13,0,14.16-.09,28.33.08,42.49.05,3.29-.86,4.37-4.17,4.25-6.49-.24-13-.21-19.49-.05-2.86.08-3.71-.87-3.64-3.7.18-7.32-.14-14.67.14-22,.12-3.42-1.07-4.16-4.23-4.07-7.32.21-14.66,0-22,.1-2.24,0-4-.22-3.92-3Z"/><path class="b4f1186d-7dcc-4af3-ac8f-a448cc3568d3" d="M312.35,321.89c0,13-.08,25.94.06,38.91,0,3.12-.64,4.57-4.1,4.27s-7-.06-10.47-.07c-8.53,0-12.65-4.1-12.65-12.57q0-31.43,0-62.87a10.91,10.91,0,0,1,11-11.23c4,0,8,.2,12-.08,3.33-.23,4.27,1,4.24,4.22-.15,13.14-.06,26.28-.06,39.42Z"/><path class="b4f1186d-7dcc-4af3-ac8f-a448cc3568d3" d="M232.17,397.17c13,0,26,.1,39-.06,3.3-.05,4.38.93,4.14,4.25-.29,4.14,0,8.32-.07,12.48a10.6,10.6,0,0,1-10.69,10.46c-23.81,0-47.62-.08-71.43.09-3.58,0-4.59-1-4.45-4.48.24-6.15.3-12.33,0-18.48-.2-3.74,1.32-4.36,4.6-4.33C206.19,397.25,219.18,397.17,232.17,397.17Z"/><path class="b4f1186d-7dcc-4af3-ac8f-a448cc3568d3" d="M731.18,419.06c.48-16.35.51-32.7,0-49.05,0-.32,0-.63,0-.94.93-1.91,2.69-1.64,4.33-1.65,3.65,0,7.31,0,11,0,8.1,0,12.3,4.21,12.31,12.39q0,16.94,0,33.88a10.77,10.77,0,0,1-10.54,10.6c-4.48,0-9-.23-13.45.09-2.83.2-3.44-1.16-3.62-3.39Z"/><path class="b4f1186d-7dcc-4af3-ac8f-a448cc3568d3" d="M315,395.77c0-8.15.12-16.3-.06-24.45-.07-3.06.88-4,4-3.91,6.48.22,13,.11,19.46,0,2.52,0,3.94.37,3.91,3.5-.13,16.8-.1,33.6,0,50.4,0,2.49-.91,3.05-3.21,3-6.82-.13-13.64-.18-20.46,0-2.85.09-3.71-.77-3.65-3.63C315.07,412.41,315,404.09,315,395.77Z"/><path class="b4f1186d-7dcc-4af3-ac8f-a448cc3568d3" d="M537,337.81c8.16,0,16.33.16,24.49-.08,3.18-.09,4.07.95,3.87,4-.22,3.49,0,7,0,10.49,0,9-3.82,12.79-12.86,12.81-13.32,0-26.65-.1-40,.09-3.34.05-4.31-1-4.21-4.22.22-6.49.19-13,0-19.49-.08-2.88.91-3.69,3.74-3.64,8.32.17,16.65.06,25,.06Z"/><ellipse class="077a3a50-2e30-438e-8bf7-7d36039397cd" cx="670.57" cy="351.93" rx="0.25" ry="89.51"/><path class="077a3a50-2e30-438e-8bf7-7d36039397cd" d="M188.25,353.36c-1.35-1.51-1.19-3.38-1.19-5.2q0-27.12,0-54.26c0-1.82-.16-3.68,1.18-5.2l-.07.26v64.15Z"/><path class="077a3a50-2e30-438e-8bf7-7d36039397cd" d="M411.36,281c.1,6.42.19,12.84.32,19.25,0,1.79-.37,3.64.55,5.35-.24.77-.27,1.78-.78,2.26-.7.65-1.23-.17-1.2-.81C410.6,298.34,408.67,289.55,411.36,281Z"/><path class="077a3a50-2e30-438e-8bf7-7d36039397cd" d="M701.34,341l.09,1.75c-1.1,8.2,0,16.47-1.24,24.67,0-8.09,0-16.19,0-24.29C700.25,342.44,701,341.73,701.34,341Z"/><path class="077a3a50-2e30-438e-8bf7-7d36039397cd" d="M218,361v1H216.1l0-23.93c1.94,3.78.56,7.83,1,11.73C217.44,353.54,216.14,357.42,218,361Z"/><path class="077a3a50-2e30-438e-8bf7-7d36039397cd" d="M633.74,282.64v20.58h-.33V282.65Z"/><path class="077a3a50-2e30-438e-8bf7-7d36039397cd" d="M411.36,398.51a154.44,154.44,0,0,1,0,22.56c-2.66-6.45-.64-13.19-1.18-19.78C410.08,400.4,409,398.57,411.36,398.51Z"/><path class="077a3a50-2e30-438e-8bf7-7d36039397cd" d="M603.4,419.12V402.69h.45v16.63Z"/><path class="077a3a50-2e30-438e-8bf7-7d36039397cd" d="M731.18,419.06l0,1.94c-.61-.11-1.36-.19-1.35-1S730.56,419.17,731.18,419.06Z"/><path class="077a3a50-2e30-438e-8bf7-7d36039397cd" d="M731.16,369.07c0,.31,0,.62,0,.94a2.94,2.94,0,0,1-.26-.65C730.89,369.28,731.07,369.16,731.16,369.07Z"/><path class="7c6a17cd-9c16-4d6d-9c67-428db3008df8" d="M188.17,353.11V289c1,1.7.5,3.57.51,5.36q.06,26.71,0,53.43C188.68,349.54,189.19,351.41,188.17,353.11Z"/></g></svg>
