<svg id="5488879a-96e1-4d32-ad48-b5a456a7af6c" data-name="Behance alt" xmlns="http://www.w3.org/2000/svg" viewBox="0 0 578.09 512"><title>SoMe</title><path d="M421.87,137.77a24.3,24.3,0,1,1-24.31-24.3h0A24.31,24.31,0,0,1,421.87,137.77Zm77.18,109.72v.31l-1.38,88.1a121.58,121.58,0,0,1-120.2,120.2l-88.41,1.39h-.31l-88.1-1.37A121.59,121.59,0,0,1,80.43,335.91l-1.38-88.42v-.31l1.38-88.1A121.58,121.58,0,0,1,200.64,38.88l88.41-1.39h.3l88.11,1.37a121.59,121.59,0,0,1,120.2,120.2Zm-39.11,0-1.38-87.8A82.66,82.66,0,0,0,376.85,78l-87.8-1.37L201.25,78a82.66,82.66,0,0,0-81.72,81.72l-1.37,87.8,1.37,87.8A82.65,82.65,0,0,0,201.25,417l87.8,1.38,87.8-1.38a82.63,82.63,0,0,0,81.71-81.71Zm-63.05,0A107.84,107.84,0,1,1,289.05,139.65h0A108,108,0,0,1,396.89,247.49Zm-39.11,0a68.74,68.74,0,1,0-68.73,68.73h0a68.81,68.81,0,0,0,68.73-68.73Z"/></svg>
