<svg id="9950ab23-3b6b-4cd4-94e1-0aecdfba253b" data-name="Layer 1" xmlns="http://www.w3.org/2000/svg" viewBox="0 0 562.98 54.17"><defs><style>.\37 06b0fb5-ee79-4099-a447-322ad6fcc29b{fill:#231f20;}</style></defs><title>jlj_logotype</title><path class="706b0fb5-ee79-4099-a447-322ad6fcc29b" d="M157.09,271.17c.56,0,1.18.19,1.18.93v34.77c0,10.61-6,12.71-11.41,12.71-.31,0-.5-.68-.5-1.42,0-1.06.13-1.62.5-1.62,6.88,0,7.87-4.83,7.87-9.73V274H139.81c-.31,0-.49-1-.49-1.55s.18-1.3.49-1.3Z" transform="translate(-139.32 -270.99)"/><path class="706b0fb5-ee79-4099-a447-322ad6fcc29b" d="M539.65,271.17c.56,0,1.18.19,1.18.93v34.77c0,10.61-6,12.71-11.41,12.71-.31,0-.49-.68-.49-1.42,0-1.06.12-1.62.49-1.62,6.89,0,7.88-4.83,7.88-9.73V274H522.37c-.3,0-.49-1-.49-1.55s.19-1.3.49-1.3Z" transform="translate(-139.32 -270.99)"/><path class="706b0fb5-ee79-4099-a447-322ad6fcc29b" d="M168.36,298.45c0-11.16,6-15.87,13.7-15.87s13.76,4.71,13.76,15.87c0,11-5.88,15.86-13.76,15.86S168.36,309.42,168.36,298.45Zm23.93-.13c0-7.37-2.79-12.52-10.23-12.52s-10.22,5.08-10.22,12.52S174.69,311,182.06,311,192.29,305.82,192.29,298.32Z" transform="translate(-139.32 -270.99)"/><path class="706b0fb5-ee79-4099-a447-322ad6fcc29b" d="M218.51,282.64c6.19,0,11.71,1.86,11.71,13.26v17.67c0,.44-1,.49-1.61.49s-1.73-.05-1.73-.49V297c0-8.74-2.73-11.47-8.81-11.47-4.77,0-9.23,3.35-9.23,11.41v16.61c0,.44-1,.49-1.68.49s-1.67-.05-1.67-.49V283.32c0-.56.49-.56,1.18-.56.43,0,1,.06,1.05.44l.75,3.34c.06.38.18.5.37.5a.85.85,0,0,0,.62-.37C212.06,283.14,216.15,282.64,218.51,282.64Z" transform="translate(-139.32 -270.99)"/><path class="706b0fb5-ee79-4099-a447-322ad6fcc29b" d="M260.59,313.63l-.74-3.41c-.07-.31-.13-.56-.31-.56a.88.88,0,0,0-.62.44,12,12,0,0,1-9.24,4.28c-8.06,0-10.48-4.84-10.48-9.24s3-9.55,12.28-9.55a31.9,31.9,0,0,1,8,1.37v-3.54c0-5.08-2.16-7.74-8.49-7.74-4.34,0-7.62,1.86-8.18,1.86s-1.24-1.74-1.24-2.17a.83.83,0,0,1,.43-.87,27.6,27.6,0,0,1,9.3-1.92c6.94,0,11.53,2.66,11.53,10.78v20.15c0,.55-.49.55-1.24.55C261,314.06,260.65,314,260.59,313.63Zm-1-13.45a25.76,25.76,0,0,0-7.88-1.43c-6.63,0-8.92,3.11-8.92,6.14,0,3.66,2.23,6.64,7.56,6.64C254.27,311.53,259.54,307.93,259.54,300.18Z" transform="translate(-139.32 -270.99)"/><path class="706b0fb5-ee79-4099-a447-322ad6fcc29b" d="M269.94,310.78c0-.62.5-2.35,1.18-2.35s4.16,2.72,9.42,2.72c5.09,0,8.25-2.35,8.25-6.2,0-7.81-17.48-4.52-17.48-14.44,0-4.9,4.15-8,10.16-8a30.71,30.71,0,0,1,7.56.93c1.37.38,2.24.87,2.24,1.55,0,.5-.69,2.3-1.24,2.3s-3.53-1.61-8.06-1.61c-4.77,0-7,1.61-7,4.46,0,6.94,17.48,3.35,17.48,14.38,0,6.07-5.2,9.79-11.71,9.79C276.08,314.31,269.94,312.52,269.94,310.78Z" transform="translate(-139.32 -270.99)"/><path class="706b0fb5-ee79-4099-a447-322ad6fcc29b" d="M322.5,310.22c0,.44.43.5,1.24.5H342.4c.25,0,.43.93.43,1.42s-.18,1.74-.43,1.74H320.52c-.81,0-1.49-.13-1.49-1V271.48c0-.49,1.05-.49,1.73-.49s1.74,0,1.74.49Z" transform="translate(-139.32 -270.99)"/><path class="706b0fb5-ee79-4099-a447-322ad6fcc29b" d="M368.55,285.12a7.78,7.78,0,0,1-.62,2.42l-13,36.88c-.25.68-1.06.74-2.3.74-.8,0-1.61-.12-1.61-.56a6.26,6.26,0,0,1,.5-1.42c.87-2.17,2.41-6.2,3.34-9.17l-9.36-26.47a6.66,6.66,0,0,1-.61-2.42v-1.43c0-.62.12-.87.74-.87h1.49a.84.84,0,0,1,.93.56l8.12,25.17c.12.49.37.56.62.56s.43-.13.56-.56l8.05-25.11a.82.82,0,0,1,.93-.62h1.61c.5,0,.62.44.62.81Z" transform="translate(-139.32 -270.99)"/><path class="706b0fb5-ee79-4099-a447-322ad6fcc29b" d="M390.06,282.64c6.19,0,11.71,1.86,11.71,13.26v17.67c0,.44-1,.49-1.61.49s-1.73-.05-1.73-.49V297c0-8.74-2.73-11.47-8.81-11.47-4.77,0-9.23,3.35-9.23,11.41v16.61c0,.44-1,.49-1.68.49S377,314,377,313.57V283.32c0-.56.5-.56,1.18-.56.43,0,1,.06,1,.44l.75,3.34c.06.38.18.5.37.5a.85.85,0,0,0,.62-.37C383.61,283.14,387.7,282.64,390.06,282.64Z" transform="translate(-139.32 -270.99)"/><path class="706b0fb5-ee79-4099-a447-322ad6fcc29b" d="M410.82,298.38c0-11.09,5-15.74,12.58-15.74a13.66,13.66,0,0,1,9.17,3.41V271.54c0-.49,1-.49,1.74-.49s1.73,0,1.73.49v42c0,.55-.55.62-1.24.62s-.93-.12-1-.5l-.74-3.41c-.13-.31-.13-.56-.37-.56s-.44.25-.62.44a11.79,11.79,0,0,1-8.93,4.28C414.41,314.38,410.82,307.31,410.82,298.38ZM432.76,295a8.76,8.76,0,0,0-8.74-9.18c-7.87,0-9.67,5-9.67,12.4,0,7.93,2.85,13.08,9,13.08,4,0,9.42-3.78,9.42-11.34Z" transform="translate(-139.32 -270.99)"/><path class="706b0fb5-ee79-4099-a447-322ad6fcc29b" d="M473.54,298.2c0,9.17-5.52,16.24-14.87,16.24a27.64,27.64,0,0,1-9.18-1.3c-.81-.25-1.11-.5-1.11-1.12V271.54c0-.49,1.05-.49,1.73-.49s1.61,0,1.61.49v15.31c2.24-2.79,5.7-4.21,9.74-4.21C470.07,282.64,473.54,287.16,473.54,298.2Zm-12.71-12.65c-3.41,0-9.29,2.17-9.29,10.91v13c1.18,1,3.65,1.86,6.94,1.86,6.51,0,11.53-4.53,11.53-13C470,290.82,468.77,285.55,460.83,285.55Z" transform="translate(-139.32 -270.99)"/><path class="706b0fb5-ee79-4099-a447-322ad6fcc29b" d="M503,285.12a7.78,7.78,0,0,1-.62,2.42l-13,36.88c-.25.68-1,.74-2.29.74-.81,0-1.61-.12-1.61-.56a6.26,6.26,0,0,1,.5-1.42c.86-2.17,2.41-6.2,3.34-9.17l-9.36-26.47a6.7,6.7,0,0,1-.62-2.42v-1.43c0-.62.12-.87.75-.87h1.48c.62,0,.81.25.93.56l8.12,25.17c.13.49.38.56.62.56s.44-.13.56-.56l8.06-25.11c.12-.37.31-.62.93-.62h1.61c.5,0,.62.44.62.81Z" transform="translate(-139.32 -270.99)"/><path class="706b0fb5-ee79-4099-a447-322ad6fcc29b" d="M570.66,308.67c.43,0,1.05,1.43,1.05,2.3,0,1.3-5.33,3.34-9.3,3.34-7.87,0-13.94-5-13.94-15.8,0-11,6.38-15.93,13.26-15.93,6.51,0,11.41,4.4,11.41,12.27,0,4.09-1.37,4.65-2.61,4.65H552.06c.06,6.2,3.1,11.53,10.6,11.53C567.5,311,569.92,308.67,570.66,308.67Zm-2.42-12.27c1.3,0,1.49-1,1.49-2.29,0-6.39-4.28-8.43-8-8.43-3.9,0-8.8,2.23-9.67,10.72Z" transform="translate(-139.32 -270.99)"/><path class="706b0fb5-ee79-4099-a447-322ad6fcc29b" d="M595.82,282.64c6.2,0,11.72,1.86,11.72,13.26v17.67c0,.44-1,.49-1.62.49s-1.73-.05-1.73-.49V297c0-8.74-2.73-11.47-8.8-11.47-4.78,0-9.24,3.35-9.24,11.41v16.61c0,.44-1,.49-1.67.49s-1.68-.05-1.68-.49V283.32c0-.56.5-.56,1.18-.56.44,0,1,.06,1,.44l.75,3.34c.06.38.18.5.37.5a.84.84,0,0,0,.62-.37C589.37,283.14,593.46,282.64,595.82,282.64Z" transform="translate(-139.32 -270.99)"/><path class="706b0fb5-ee79-4099-a447-322ad6fcc29b" d="M614.66,310.78c0-.62.49-2.35,1.18-2.35s4.15,2.72,9.41,2.72c5.09,0,8.25-2.35,8.25-6.2,0-7.81-17.48-4.52-17.48-14.44,0-4.9,4.15-8,10.17-8a30.77,30.77,0,0,1,7.56.93c1.36.38,2.23.87,2.23,1.55,0,.5-.68,2.3-1.24,2.3s-3.53-1.61-8.06-1.61c-4.77,0-7,1.61-7,4.46,0,6.94,17.48,3.35,17.48,14.38,0,6.07-5.21,9.79-11.72,9.79C620.79,314.31,614.66,312.52,614.66,310.78Z" transform="translate(-139.32 -270.99)"/><path class="706b0fb5-ee79-4099-a447-322ad6fcc29b" d="M665.42,308.67c.43,0,1.05,1.43,1.05,2.3,0,1.3-5.33,3.34-9.29,3.34-7.88,0-13.95-5-13.95-15.8,0-11,6.38-15.93,13.26-15.93,6.51,0,11.41,4.4,11.41,12.27,0,4.09-1.36,4.65-2.6,4.65H646.82c.07,6.2,3.1,11.53,10.6,11.53C662.26,311,664.67,308.67,665.42,308.67ZM663,296.4c1.3,0,1.49-1,1.49-2.29,0-6.39-4.28-8.43-8-8.43-3.9,0-8.8,2.23-9.67,10.72Z" transform="translate(-139.32 -270.99)"/><path class="706b0fb5-ee79-4099-a447-322ad6fcc29b" d="M690.58,282.64c6.2,0,11.72,1.86,11.72,13.26v17.67c0,.44-1,.49-1.62.49S699,314,699,313.57V297c0-8.74-2.73-11.47-8.8-11.47-4.78,0-9.24,3.35-9.24,11.41v16.61c0,.44-1,.49-1.67.49s-1.68-.05-1.68-.49V283.32c0-.56.5-.56,1.18-.56.43,0,1,.06,1,.44l.75,3.34c.06.38.19.5.37.5a.82.82,0,0,0,.62-.37C684.14,283.14,688.22,282.64,690.58,282.64Z" transform="translate(-139.32 -270.99)"/></svg>
