<?xml version="1.0" standalone="no"?>
<!DOCTYPE svg PUBLIC "-//W3C//DTD SVG 20010904//EN"
 "http://www.w3.org/TR/2001/REC-SVG-20010904/DTD/svg10.dtd">
<svg version="1.0" xmlns="http://www.w3.org/2000/svg"
 width="700.000000pt" height="700.000000pt" viewBox="0 0 700.000000 700.000000"
 preserveAspectRatio="xMidYMid meet">
<metadata>
Created by potrace 1.11, written by Peter Selinger 2001-2013
</metadata>
<g transform="translate(0.000000,700.000000) scale(0.100000,-0.100000)"
fill="#000000" stroke="none">
<path d="M33 5894 c-23 -36 -32 -82 -28 -152 3 -63 26 -140 43 -143 4 -1 380
-3 837 -4 457 -1 832 -3 836 -4 6 -1 3 -3871 -4 -3917 -2 -17 -8 -57 -11 -90
-4 -32 -14 -86 -22 -119 -8 -33 -17 -69 -19 -79 -26 -114 -121 -274 -211 -354
-139 -125 -305 -183 -563 -196 -66 -4 -77 -11 -92 -61 -11 -36 -10 -172 0
-212 18 -62 24 -67 88 -67 63 1 216 12 248 19 11 3 31 7 45 9 270 45 505 179
665 381 72 90 161 267 195 390 30 107 43 166 55 255 3 25 8 57 10 71 14 81 16
393 17 2217 0 1846 -1 2004 -17 2028 -9 14 -28 30 -43 36 -19 8 -317 11 -1021
12 l-994 1 -14 -21z"/>
<path d="M2809 5909 c-62 -9 -89 -25 -90 -52 0 -12 0 -1068 0 -2346 -1 -2268
0 -2324 18 -2349 11 -14 35 -31 54 -38 26 -10 320 -13 1292 -13 l1258 -1 13
32 c25 59 33 170 19 239 -7 34 -17 67 -23 73 -8 8 -336 11 -1100 12 -895 0
-1094 3 -1115 14 -23 12 -25 19 -25 79 -1 36 -1 1020 -2 2186 0 2337 5 2148
-62 2160 -48 9 -186 11 -237 4z"/>
<path d="M4915 5900 c-37 -43 -43 -197 -9 -267 l19 -38 830 -1 c457 -1 835 -2
840 -3 12 -1 13 -3769 1 -3891 -31 -335 -110 -533 -268 -674 -132 -118 -295
-173 -560 -191 -32 -2 -62 -6 -67 -10 -31 -18 -43 -198 -20 -276 15 -50 31
-57 124 -53 233 10 409 51 582 136 293 143 488 421 567 808 3 14 7 36 10 50 3
14 8 50 12 80 3 30 8 66 12 80 11 43 14 4174 3 4203 -6 14 -25 34 -43 43 -31
17 -102 18 -1026 18 -871 1 -995 -1 -1007 -14z"/>
</g>
</svg>
